<svg xmlns="http://www.w3.org/2000/svg" viewBox="0 0 143 192">
  <title>ai</title>
  <g>
    <g>
      <path d="M0,170.2V20.5C.3,18.8,1.8,9.6,10.2,4a23,23,0,0,1,12-4h67L143,56l-.3,116a21.2,21.2,0,0,1-5.8,12.9,22.1,22.1,0,0,1-13.9,6.6L19.2,192a26.2,26.2,0,0,1-13.9-8.6A25.2,25.2,0,0,1,0,170.2Z" fill="#ec671b"/>
      <polygon points="89.2 0 89.2 55.5 143 56 89.2 0" fill="#f39152"/>
    </g>
    <g>
      <path d="M71.1,131.7l-1.7-4.5H54.9l-1.7,4.6a20.8,20.8,0,0,1-1.7,3.6,3,3,0,0,1-2.4.9,3.3,3.3,0,0,1-2.4-1,2.8,2.8,0,0,1-1-2.2,7.7,7.7,0,0,1,.2-1.5,21.1,21.1,0,0,1,.8-2.2l9.2-23.3c.2-.6.6-1.4.9-2.4a16.1,16.1,0,0,1,1.2-2.3,5.7,5.7,0,0,1,1.6-1.5,4.9,4.9,0,0,1,2.5-.6,5.3,5.3,0,0,1,2.6.6,5.7,5.7,0,0,1,1.6,1.5,6.9,6.9,0,0,1,1,1.9c.3.7.7,1.6,1.1,2.8l9.4,23.1a11.9,11.9,0,0,1,1.1,3.8,3.6,3.6,0,0,1-3.6,3.3,3.2,3.2,0,0,1-1.4-.3,2.8,2.8,0,0,1-1.1-.8,11.6,11.6,0,0,1-.8-1.6C71.6,132.9,71.4,132.2,71.1,131.7Zm-14.3-10H67.5L62.1,107Z" fill="#fff"/>
      <path d="M87.1,106.1a3.5,3.5,0,0,1-2.4-.8,3.4,3.4,0,0,1,0-4.8,3.6,3.6,0,0,1,2.4-.9,3.3,3.3,0,0,1,2.3.9,2.7,2.7,0,0,1,1,2.4,3,3,0,0,1-1,2.4A3.1,3.1,0,0,1,87.1,106.1Zm3.3,6.9v19.3a4,4,0,0,1-1,3,3,3,0,0,1-2.4,1,3.3,3.3,0,0,1-2.4-1,4.5,4.5,0,0,1-.9-3V113.2a4.5,4.5,0,0,1,.9-3,3.7,3.7,0,0,1,2.4-1,3.3,3.3,0,0,1,2.4,1A3.7,3.7,0,0,1,90.4,113Z" fill="#fff"/>
    </g>
  </g>
</svg>
