<svg xmlns="http://www.w3.org/2000/svg" viewBox="0 0 143 192">
  <title>apk</title>
  <g>
    <g>
      <path d="M0,170.2V20.5C.3,18.8,1.8,9.6,10.2,4a23,23,0,0,1,12-4h67L143,56l-.3,116a21.2,21.2,0,0,1-5.8,12.9,22.1,22.1,0,0,1-13.9,6.6L19.2,192a26.2,26.2,0,0,1-13.9-8.6A25.2,25.2,0,0,1,0,170.2Z" fill="#47b061"/>
      <polygon points="89.2 0 89.2 55.5 143 56 89.2 0" fill="#6fbd8a"/>
    </g>
    <g>
      <path d="M83.5,160.4V148.3h6.8a1.5,1.5,0,0,0,1.5-1.7V110.8a1.6,1.6,0,0,0-1.5-1.8H52.7a1.6,1.6,0,0,0-1.5,1.8v35.8a1.5,1.5,0,0,0,1.5,1.7h6.7v12.1" fill="#fff"/>
      <path d="M68.3,160.4V148.3h6.3v12.1" fill="#47b061"/>
      <path d="M44.8,109h0c-2.5,0-4.5,2.3-4.5,5.1v20.6c0,2.8,2,5.1,4.5,5.1h0c2.4,0,4.4-2.3,4.4-5.1V114.1C49.2,111.3,47.2,109,44.8,109Z" fill="#fff"/>
      <path d="M98.2,109h0c-2.5,0-4.5,2.3-4.5,5.1v20.6c0,2.8,2,5.1,4.5,5.1h0c2.5,0,4.5-2.3,4.5-5.1V114.1C102.7,111.3,100.7,109,98.2,109Z" fill="#fff"/>
      <path d="M53,106.5H89.9a1.7,1.7,0,0,0,1.5-2.1A22.9,22.9,0,0,0,81.4,89l3.2-6.5a.9.9,0,0,0-.3-1.2.8.8,0,0,0-1.1.4L80,88.2a17.7,17.7,0,0,0-17.1,0l-3.2-6.5a.8.8,0,0,0-1.1-.4.9.9,0,0,0-.3,1.2L61.5,89a22.9,22.9,0,0,0-10,15.4A1.7,1.7,0,0,0,53,106.5Zm29.5-9.6a1.8,1.8,0,1,1-3.5,0,1.8,1.8,0,1,1,3.5,0Zm-20.4-2a1.9,1.9,0,0,1,1.8,2,1.8,1.8,0,1,1-1.8-2Z" fill="#fff"/>
    </g>
  </g>
</svg>
