<svg xmlns="http://www.w3.org/2000/svg" viewBox="0 0 143 192">
  <title>audio</title>
  <g>
    <g>
      <path d="M0,170.2V20.5C.3,18.8,1.8,9.6,10.2,4a23,23,0,0,1,12-4h67L143,56l-.3,116a21.2,21.2,0,0,1-5.8,12.9,22.1,22.1,0,0,1-13.9,6.6L19.2,192a26.2,26.2,0,0,1-13.9-8.6A25.2,25.2,0,0,1,0,170.2Z" fill="#3d80c3"/>
      <polygon points="89.2 0 89.2 55.5 143 56 89.2 0" fill="#5ea8dd"/>
    </g>
    <g>
      <path d="M52.9,138.8l-.2-22.7a5.7,5.7,0,0,1,5.8-4.6,5.5,5.5,0,0,1,5.1,4.3c.1,7.7.1,15.4.2,23.1a6,6,0,0,1-5.4,3.8A6,6,0,0,1,52.9,138.8Z" fill="#fff"/>
      <path d="M80.1,139.5l-.2-22.7a5.5,5.5,0,0,1,10.8-.4c.1,7.7.2,15.4.2,23.1a5.7,5.7,0,0,1-10.8,0Z" fill="#fff"/>
      <path d="M48.8,138.1c0-7.1.1-14.3.1-21.5-1.4.4-3,.5-3.8-.3-2.5-2.4,1.8-11.7,7-17.6a33.6,33.6,0,0,1,13.4-8.9,28.7,28.7,0,0,1,6.5-.7,30.6,30.6,0,0,1,5.6.5A31.8,31.8,0,0,1,92.1,99c5,6.1,8.5,15.4,6.1,17.3a3.4,3.4,0,0,1-3.1,0c-.2,7.2-.3,14.5-.5,21.7a9.4,9.4,0,0,0,8-.8,8.4,8.4,0,0,0,3.2-3.7V114.8c-.2-3-1.5-15.8-12.3-24.9A34.3,34.3,0,0,0,79,82.7c-2.3-.3-4.9-.4-7.6-.5s-5,.2-7.2.4a35.8,35.8,0,0,0-16,8.8c-9.7,9.1-10.8,20.8-11.1,23.9.2,5.8.3,11.7.4,17.5a9.5,9.5,0,0,0,2.6,3.4,10.4,10.4,0,0,0,3.5,1.8Z" fill="#fff" stroke="#fff" stroke-miterlimit="10" stroke-width="0.25"/>
    </g>
  </g>
</svg>
