<svg xmlns="http://www.w3.org/2000/svg" viewBox="0 0 143 192">
  <title>DOC</title>
  <g>
    <g>
      <path d="M0,170.2V20.5C.3,18.8,1.8,9.6,10.2,4a23,23,0,0,1,12-4h67L143,56l-.3,116a21.2,21.2,0,0,1-5.8,12.9,22.1,22.1,0,0,1-13.9,6.6L19.2,192a26.2,26.2,0,0,1-13.9-8.6A25.2,25.2,0,0,1,0,170.2Z" fill="#2b61ac"/>
      <polygon points="89.2 0 89.2 55.5 143 56 89.2 0" fill="#548ecb"/>
    </g>
    <g>
      <path d="M25.5,110H35a23.3,23.3,0,0,1,6.3.7,11.1,11.1,0,0,1,4.8,2.5c3.7,3.2,5.6,8.1,5.6,14.6a27.4,27.4,0,0,1-.6,5.9,19.6,19.6,0,0,1-1.7,4.8,15.7,15.7,0,0,1-3,3.8,17.7,17.7,0,0,1-3.2,2.1,18.9,18.9,0,0,1-3.6,1.1,29.9,29.9,0,0,1-4.5.3H25.7a6.1,6.1,0,0,1-3-.6,2.7,2.7,0,0,1-1.3-1.7,10.9,10.9,0,0,1-.3-2.8V114.4a4.8,4.8,0,0,1,1-3.4A4.8,4.8,0,0,1,25.5,110Zm2.8,5.7V140h8.4a5.4,5.4,0,0,0,2.1-.5,4.5,4.5,0,0,0,1.9-1.1c2.4-2,3.6-5.6,3.6-10.6s-.5-6.1-1.6-7.9a6.7,6.7,0,0,0-3.9-3.4,23.4,23.4,0,0,0-5.7-.7Z" fill="#fff"/>
      <path d="M73.8,109.4a19.5,19.5,0,0,1,9.6,2.2,15.1,15.1,0,0,1,6,6.5,21,21,0,0,1,2.1,9.7,22.9,22.9,0,0,1-1.2,7.6,16.3,16.3,0,0,1-3.3,5.9,15.9,15.9,0,0,1-5.6,3.8,20.8,20.8,0,0,1-7.4,1.3,20.2,20.2,0,0,1-7.6-1.4,14.3,14.3,0,0,1-5.5-3.8,16.3,16.3,0,0,1-3.4-5.9,25.6,25.6,0,0,1-1.1-7.5,22.9,22.9,0,0,1,1.2-7.6,15.9,15.9,0,0,1,3.4-5.8,13.1,13.1,0,0,1,5.5-3.7A18.6,18.6,0,0,1,73.8,109.4Zm10.3,18.4a15.9,15.9,0,0,0-1.3-6.8,8.8,8.8,0,0,0-3.6-4.4,10,10,0,0,0-5.4-1.5,10.1,10.1,0,0,0-7.2,3.2,11.7,11.7,0,0,0-2.1,4,19.3,19.3,0,0,0,0,11,12.3,12.3,0,0,0,2.2,4.1,8.2,8.2,0,0,0,3.2,2.4,10.2,10.2,0,0,0,9.1-.6,8.8,8.8,0,0,0,3.7-4.3A16.6,16.6,0,0,0,84.1,127.8Z" fill="#fff"/>
      <path d="M128.2,134.5a9.5,9.5,0,0,1-.9,3.7,14.7,14.7,0,0,1-2.6,3.9,13.3,13.3,0,0,1-4.7,3.1,16,16,0,0,1-6.5,1.2,19.8,19.8,0,0,1-5.1-.6,14.7,14.7,0,0,1-4.3-1.6,15.9,15.9,0,0,1-3.4-3,16.7,16.7,0,0,1-2.5-3.8,32.6,32.6,0,0,1-1.5-4.4,27.6,27.6,0,0,1-.5-5.1,23,23,0,0,1,1.3-7.7,16.2,16.2,0,0,1,3.6-5.9,17.2,17.2,0,0,1,5.5-3.7,18.5,18.5,0,0,1,6.7-1.2,17.1,17.1,0,0,1,7.7,1.7,14.1,14.1,0,0,1,5.2,4.3,8,8,0,0,1,1.9,4.8,3.1,3.1,0,0,1-.9,2.2,3,3,0,0,1-2.2,1,2.8,2.8,0,0,1-2-.7,8.1,8.1,0,0,1-1.6-2.3,9.9,9.9,0,0,0-3.3-3.9,8.2,8.2,0,0,0-4.7-1.4,8.9,8.9,0,0,0-7.2,3.4c-1.7,2.3-2.6,5.5-2.6,9.7a17.1,17.1,0,0,0,1.2,6.9,8.2,8.2,0,0,0,3.3,4.2,9.1,9.1,0,0,0,5,1.3,9,9,0,0,0,5.3-1.5,10.7,10.7,0,0,0,3.3-4.6,7,7,0,0,1,1.1-2.3,2.7,2.7,0,0,1,2.2-.9,2.9,2.9,0,0,1,2.2.9A3.3,3.3,0,0,1,128.2,134.5Z" fill="#fff"/>
    </g>
  </g>
</svg>
