<svg xmlns="http://www.w3.org/2000/svg" viewBox="0 0 143 192">
  <title>iso</title>
  <g>
    <g>
      <path d="M0,170.2V20.5C.3,18.8,1.8,9.6,10.2,4a23,23,0,0,1,12-4h67L143,56l-.3,116a21.2,21.2,0,0,1-5.8,12.9,22.1,22.1,0,0,1-13.9,6.6L19.2,192a26.2,26.2,0,0,1-13.9-8.6A25.2,25.2,0,0,1,0,170.2Z" fill="#3d80c3"/>
      <polygon points="89.2 0 89.2 55.5 143 56 89.2 0" fill="#5ea8dd"/>
    </g>
    <g>
      <path d="M31.2,131.9V103.7a4.8,4.8,0,0,1,1-3.3,3.5,3.5,0,0,1,2.6-1.1,3.3,3.3,0,0,1,2.6,1.1,4.5,4.5,0,0,1,1,3.3v28.2a4.5,4.5,0,0,1-1,3.3,3,3,0,0,1-2.6,1.1,3.1,3.1,0,0,1-2.6-1.1A4.5,4.5,0,0,1,31.2,131.9Z" fill="#fff"/>
      <path d="M73.7,125a10.3,10.3,0,0,1-1.6,5.8,11.8,11.8,0,0,1-4.9,4.1,18.3,18.3,0,0,1-7.7,1.4,16.5,16.5,0,0,1-8.7-2,11.2,11.2,0,0,1-4-3.8,8.9,8.9,0,0,1-1.5-4.7,3.2,3.2,0,0,1,3.3-3.2,2.7,2.7,0,0,1,1.9.8,4.7,4.7,0,0,1,1.3,2.1,19.2,19.2,0,0,0,1.5,2.9,7.3,7.3,0,0,0,2.3,1.9,7.9,7.9,0,0,0,3.7.7,8.8,8.8,0,0,0,5.3-1.5,4.5,4.5,0,0,0,2-3.7,4,4,0,0,0-1.1-2.9,6.6,6.6,0,0,0-2.8-1.7l-4.6-1.3a35.5,35.5,0,0,1-6.5-2.1,10.4,10.4,0,0,1-4.1-3.3,9.5,9.5,0,0,1,.1-10.4,10.1,10.1,0,0,1,4.7-3.5,17.3,17.3,0,0,1,7.1-1.3,19.1,19.1,0,0,1,5.7.8,12.6,12.6,0,0,1,4,2.2,9,9,0,0,1,2.4,2.9,7.7,7.7,0,0,1,.7,2.9,3.5,3.5,0,0,1-.9,2.3,2.9,2.9,0,0,1-2.3,1,2.7,2.7,0,0,1-1.9-.6,9.5,9.5,0,0,1-1.4-2,9,9,0,0,0-2.4-3.2,6.9,6.9,0,0,0-4.3-1.1,8.1,8.1,0,0,0-4.6,1.2,3.6,3.6,0,0,0-1.7,3,2.8,2.8,0,0,0,.6,1.8,4.4,4.4,0,0,0,1.6,1.4l2.1.9,3.4.9,5.5,1.5a16.4,16.4,0,0,1,4.2,2.1,10.1,10.1,0,0,1,2.7,3.1A10.8,10.8,0,0,1,73.7,125Z" fill="#fff"/>
      <path d="M95.6,99.3a19.2,19.2,0,0,1,9.6,2.3,13.8,13.8,0,0,1,6,6.4,21.5,21.5,0,0,1,2.1,9.8,24.7,24.7,0,0,1-1.1,7.5,16.3,16.3,0,0,1-3.4,5.9,14.3,14.3,0,0,1-5.5,3.8,22.3,22.3,0,0,1-15,0,15.9,15.9,0,0,1-5.6-3.8,17.5,17.5,0,0,1-3.3-6,24,24,0,0,1,0-15,16.5,16.5,0,0,1,3.5-5.9,15.8,15.8,0,0,1,5.4-3.7A21.1,21.1,0,0,1,95.6,99.3ZM106,117.7a17.5,17.5,0,0,0-1.3-6.8,10.3,10.3,0,0,0-3.6-4.3,10.1,10.1,0,0,0-5.5-1.5,11,11,0,0,0-4,.8,8.1,8.1,0,0,0-3.1,2.4,10.8,10.8,0,0,0-2.1,4,15.3,15.3,0,0,0-.8,5.4,16.5,16.5,0,0,0,.8,5.6,10.8,10.8,0,0,0,2.1,4,10,10,0,0,0,3.3,2.5,10.1,10.1,0,0,0,3.9.8,10.4,10.4,0,0,0,5.2-1.4,9.9,9.9,0,0,0,3.7-4.3A16.8,16.8,0,0,0,106,117.7Z" fill="#fff"/>
    </g>
  </g>
</svg>
