<svg xmlns="http://www.w3.org/2000/svg" viewBox="0 0 143 192">
  <title>js</title>
  <g>
    <g>
      <path d="M0,170.2V20.5C.3,18.8,1.8,9.6,10.2,4a23,23,0,0,1,12-4h67L143,56l-.3,116a21.2,21.2,0,0,1-5.8,12.9,22.1,22.1,0,0,1-13.9,6.6L19.2,192a26.2,26.2,0,0,1-13.9-8.6A25.2,25.2,0,0,1,0,170.2Z" fill="#e0c603"/>
      <polygon points="89.2 0 89.2 55.5 143 56 89.2 0" fill="#ead84c"/>
    </g>
    <g>
      <path d="M62.8,113.8v18.7a26.8,26.8,0,0,1-.2,4.2,10.7,10.7,0,0,1-.9,3.4,9.5,9.5,0,0,1-4,4.6,13.6,13.6,0,0,1-6.9,1.7,13.4,13.4,0,0,1-6-1.2,8.4,8.4,0,0,1-4-3.7,12.5,12.5,0,0,1-1.2-3.1,14,14,0,0,1-.5-3.4,3.4,3.4,0,0,1,.9-2.6,3.7,3.7,0,0,1,2.5-.9,2.7,2.7,0,0,1,2.2.8,8.1,8.1,0,0,1,1.1,2.6,30.9,30.9,0,0,0,.8,3,5.2,5.2,0,0,0,1.4,1.9,4.1,4.1,0,0,0,2.8.8c3.2,0,4.8-2.3,4.8-7V113.8a4.5,4.5,0,0,1,1-3.3,3,3,0,0,1,2.6-1.1,3.3,3.3,0,0,1,2.7,1.1A5,5,0,0,1,62.8,113.8Z" fill="#fff"/>
      <path d="M97.9,135a10.5,10.5,0,0,1-6.6,9.9,17.8,17.8,0,0,1-7.6,1.5,17.5,17.5,0,0,1-8.7-2,11.5,11.5,0,0,1-4-3.9,8.6,8.6,0,0,1-1.5-4.6,3.1,3.1,0,0,1,3.2-3.2,2.9,2.9,0,0,1,2,.7,6.4,6.4,0,0,1,1.3,2.2,17.7,17.7,0,0,0,1.5,2.8,5.9,5.9,0,0,0,2.2,1.9,8.2,8.2,0,0,0,3.8.8,8.4,8.4,0,0,0,5.2-1.5,4.6,4.6,0,0,0,2.1-3.8,4.2,4.2,0,0,0-1.1-2.9,8.8,8.8,0,0,0-2.8-1.7L82.3,130a33.1,33.1,0,0,1-6.5-2.1,10.4,10.4,0,0,1-4.1-3.3,8.7,8.7,0,0,1-1.6-5.2,9,9,0,0,1,1.7-5.3,9.8,9.8,0,0,1,4.6-3.5,19.7,19.7,0,0,1,7.2-1.2,16.4,16.4,0,0,1,5.7.8,11.8,11.8,0,0,1,4,2.2,9.8,9.8,0,0,1,2.3,2.8,6.5,6.5,0,0,1,.7,2.9,3.2,3.2,0,0,1-.9,2.3,2.8,2.8,0,0,1-2.3,1.1,2.4,2.4,0,0,1-1.8-.6,10.5,10.5,0,0,1-1.5-2.1,8.4,8.4,0,0,0-2.3-3.1,6.6,6.6,0,0,0-4.4-1.2,6.9,6.9,0,0,0-4.5,1.3,3.4,3.4,0,0,0-1.7,2.9,3.8,3.8,0,0,0,.5,1.9,5.9,5.9,0,0,0,1.7,1.3,7.2,7.2,0,0,0,2,.9l3.5.9c2,.5,3.8,1,5.5,1.6a20.6,20.6,0,0,1,4.2,2.1,7.9,7.9,0,0,1,2.6,3.1A8.8,8.8,0,0,1,97.9,135Z" fill="#fff"/>
    </g>
  </g>
</svg>
