<svg xmlns="http://www.w3.org/2000/svg" viewBox="0 0 143 192">
  <title>json</title>
  <g>
    <g>
      <path d="M0,170.2V20.5C.3,18.8,1.8,9.6,10.2,4a23,23,0,0,1,12-4h67L143,56l-.3,116a21.2,21.2,0,0,1-5.8,12.9,22.1,22.1,0,0,1-13.9,6.6L19.2,192a26.2,26.2,0,0,1-13.9-8.6A25.2,25.2,0,0,1,0,170.2Z" fill="#12a0dc"/>
      <polygon points="89.2 0 89.2 55.5 143 56 89.2 0" fill="#4dbeeb"/>
    </g>
    <g>
      <path d="M51,113.3a4.9,4.9,0,0,0,1.2-3.4V98.8A9.1,9.1,0,0,1,53.8,93a5.4,5.4,0,0,1,4.5-2h5.1v5.8H61.7A1.7,1.7,0,0,0,59.9,98a9,9,0,0,0-.5,3v9.6a8.1,8.1,0,0,1-1.1,4.3,5.1,5.1,0,0,1-3.1,2.1h0a4.6,4.6,0,0,1,3.1,2,8.4,8.4,0,0,1,1.1,4.4v9.4a8.4,8.4,0,0,0,.5,2.9,1.7,1.7,0,0,0,1.8,1.3h1.7v5.8H58.3a5.4,5.4,0,0,1-4.5-2,9.1,9.1,0,0,1-1.6-5.8v-11a4.9,4.9,0,0,0-1.2-3.4,3.3,3.3,0,0,0-2.6-1.3v-4.8A3.3,3.3,0,0,0,51,113.3Z" fill="#fff"/>
      <path d="M82.1,137.1a1.7,1.7,0,0,0,1.8-1.3,8.4,8.4,0,0,0,.5-2.9v-9.4a7.6,7.6,0,0,1,1.1-4.4,4.6,4.6,0,0,1,3-2h0a5.2,5.2,0,0,1-3-2.1,7.3,7.3,0,0,1-1.1-4.3V101a9,9,0,0,0-.5-3,1.7,1.7,0,0,0-1.8-1.2H80.4V91h5.1A5.4,5.4,0,0,1,90,93a9.7,9.7,0,0,1,1.6,5.8v11.1a4.8,4.8,0,0,0,1.1,3.4,3.5,3.5,0,0,0,2.7,1.3v4.8a3.5,3.5,0,0,0-2.7,1.3,4.8,4.8,0,0,0-1.1,3.4v11a9.7,9.7,0,0,1-1.6,5.8,5.4,5.4,0,0,1-4.5,2H80.4v-5.8Z" fill="#fff"/>
    </g>
  </g>
</svg>
