<svg xmlns="http://www.w3.org/2000/svg" viewBox="0 0 143 192">
  <title>pdf</title>
  <g>
    <g>
      <path d="M0,170.2V20.5C.3,18.8,1.8,9.6,10.2,4a23,23,0,0,1,12-4h67L143,56l-.3,116a21.2,21.2,0,0,1-5.8,12.9,22.1,22.1,0,0,1-13.9,6.6L19.2,192a26.2,26.2,0,0,1-13.9-8.6A25.2,25.2,0,0,1,0,170.2Z" fill="#e5221d"/>
      <polygon points="89.2 0 89.2 55.5 143 56 89.2 0" fill="#ea4f51"/>
    </g>
    <g>
      <path d="M39.9,131.8H33.3V142a4.8,4.8,0,0,1-1,3.3,3.6,3.6,0,0,1-2.6,1.1,3.7,3.7,0,0,1-2.7-1.1,5.4,5.4,0,0,1-1-3.3V114.4a4.6,4.6,0,0,1,1.1-3.4,5,5,0,0,1,3.5-1h9.3a26,26,0,0,1,6.4.6,10.7,10.7,0,0,1,3.8,2,9.5,9.5,0,0,1,2.4,3.5,11.4,11.4,0,0,1,.8,4.6c0,3.7-1.1,6.4-3.3,8.3S44.4,131.8,39.9,131.8Zm-1.7-16.4H33.3v11h4.9a13.5,13.5,0,0,0,4.3-.6,4.8,4.8,0,0,0,2.6-1.7,5.3,5.3,0,0,0,.9-3.2,5.6,5.6,0,0,0-1.4-3.9C43.6,116,41.4,115.4,38.2,115.4Z" fill="#fff"/>
      <path d="M63.9,110h9.4a24.1,24.1,0,0,1,6.4.7,11.3,11.3,0,0,1,4.7,2.5c3.8,3.2,5.6,8.1,5.6,14.6a36.1,36.1,0,0,1-.5,5.9,19.8,19.8,0,0,1-1.8,4.8,12,12,0,0,1-3,3.8,16.9,16.9,0,0,1-3.1,2.1,22.6,22.6,0,0,1-3.7,1.1,29.4,29.4,0,0,1-4.4.3H64a5.5,5.5,0,0,1-2.9-.6,3.3,3.3,0,0,1-1.4-1.7,10.9,10.9,0,0,1-.3-2.8V114.4a4.8,4.8,0,0,1,1.1-3.4A4.6,4.6,0,0,1,63.9,110Zm2.8,5.7V140H75a5.4,5.4,0,0,0,2.1-.5,4,4,0,0,0,1.9-1.1c2.5-2,3.7-5.6,3.7-10.6s-.5-6.1-1.6-7.9a7.2,7.2,0,0,0-4-3.4,21.9,21.9,0,0,0-5.6-.7Z" fill="#fff"/>
      <path d="M117.8,115.6H103.5v9.1h11.9a3.4,3.4,0,0,1,2.5.8,2.3,2.3,0,0,1,.8,2,2.1,2.1,0,0,1-.8,1.9,3.6,3.6,0,0,1-2.5.8H103.5V142a4.5,4.5,0,0,1-1,3.3,3.5,3.5,0,0,1-2.6,1.1,3.3,3.3,0,0,1-2.6-1.1,4.7,4.7,0,0,1-1-3.3V114.4a6,6,0,0,1,.4-2.5,2.8,2.8,0,0,1,1.5-1.5,6,6,0,0,1,2.5-.4h17.1a3.5,3.5,0,0,1,2.6.8,2.6,2.6,0,0,1,.8,2,2.8,2.8,0,0,1-.8,2A4,4,0,0,1,117.8,115.6Z" fill="#fff"/>
    </g>
  </g>
</svg>
