<svg xmlns="http://www.w3.org/2000/svg" viewBox="0 0 143 192">
  <title>ps</title>
  <g>
    <g>
      <path d="M0,170.2V20.5C.3,18.8,1.8,9.6,10.2,4a23,23,0,0,1,12-4h67L143,56l-.3,116a21.2,21.2,0,0,1-5.8,12.9,22.1,22.1,0,0,1-13.9,6.6L19.2,192a26.2,26.2,0,0,1-13.9-8.6A25.2,25.2,0,0,1,0,170.2Z" fill="#2a4496"/>
      <polygon points="89.2 0 89.2 55.5 143 56 89.2 0" fill="#4954a1"/>
    </g>
    <g>
      <path d="M62.1,121.8H55.5v10.1a5,5,0,0,1-1,3.3,3.3,3.3,0,0,1-2.6,1.1,3.3,3.3,0,0,1-2.7-1.1,4.9,4.9,0,0,1-1-3.2V104.4a4.5,4.5,0,0,1,1.1-3.4,5.1,5.1,0,0,1,3.5-1.1h9.3a21.3,21.3,0,0,1,6.4.7,10.7,10.7,0,0,1,3.8,2,9.9,9.9,0,0,1,2.4,3.5,11.1,11.1,0,0,1,.8,4.6c0,3.6-1.1,6.4-3.3,8.3S66.6,121.8,62.1,121.8Zm-1.7-16.4H55.5v10.9h4.9a17.5,17.5,0,0,0,4.3-.5,5.5,5.5,0,0,0,2.6-1.8,5.3,5.3,0,0,0,.9-3.2,5.4,5.4,0,0,0-1.4-3.8C65.7,105.9,63.6,105.4,60.4,105.4Z" fill="#fff"/>
      <path d="M102.6,127.6a7.9,7.9,0,0,1-1.4,4.7,7.4,7.4,0,0,1-3.9,3,17.6,17.6,0,0,1-6.4,1,14.6,14.6,0,0,1-6.2-1.1,8.3,8.3,0,0,1-3.7-2.7,5.1,5.1,0,0,1-1.3-3.3,2.7,2.7,0,0,1,.8-1.9,2.8,2.8,0,0,1,2-.8,2.5,2.5,0,0,1,1.6.5,9.7,9.7,0,0,1,1.1,1.5,6.8,6.8,0,0,0,2.4,2.6,7.5,7.5,0,0,0,3.9.9,5.4,5.4,0,0,0,3.3-.9,2.3,2.3,0,0,0,1.3-2,3,3,0,0,0-1.3-2.6,19.8,19.8,0,0,0-4.4-1.5,41.4,41.4,0,0,1-5.6-1.8,9.3,9.3,0,0,1-3.5-2.5,6,6,0,0,1-1.3-3.8,6.8,6.8,0,0,1,1.2-3.8,9.1,9.1,0,0,1,3.5-2.8,14.1,14.1,0,0,1,5.7-1.1,16.5,16.5,0,0,1,4.6.6,11.1,11.1,0,0,1,3.5,1.4,8.1,8.1,0,0,1,2.1,2,5.1,5.1,0,0,1,.7,2.2,2.3,2.3,0,0,1-.8,1.8,2.9,2.9,0,0,1-2.2.8,2.5,2.5,0,0,1-1.7-.6,15.6,15.6,0,0,1-1.7-1.8,8,8,0,0,0-1.7-1.5,5.8,5.8,0,0,0-2.8-.6,4.8,4.8,0,0,0-3,.8,2.2,2.2,0,0,0-1.2,1.9,2.1,2.1,0,0,0,.9,1.7,7,7,0,0,0,2.3,1.1l4.1,1.1a21.3,21.3,0,0,1,5.1,1.8,8.4,8.4,0,0,1,3,2.5A5.8,5.8,0,0,1,102.6,127.6Z" fill="#fff"/>
    </g>
  </g>
</svg>
