<svg xmlns="http://www.w3.org/2000/svg" viewBox="0 0 143 192">
  <title>svg</title>
  <g>
    <g>
      <path d="M0,170.2V20.5C.3,18.8,1.8,9.6,10.2,4a23,23,0,0,1,12-4h67L143,56l-.3,116a21.2,21.2,0,0,1-5.8,12.9,22.1,22.1,0,0,1-13.9,6.6L19.2,192a26.2,26.2,0,0,1-13.9-8.6A25.2,25.2,0,0,1,0,170.2Z" fill="#ec671b"/>
      <polygon points="89.2 0 89.2 55.5 143 56 89.2 0" fill="#f39152"/>
    </g>
    <path d="M49,134.8a1.1,1.1,0,0,1-.3.8.9.9,0,0,1-.7.3H38c0,.1-.4.1-.7-.2a1.1,1.1,0,0,1-.3-.7V124.8a.7.7,0,0,1,.3-.6,1.3,1.3,0,0,1,.7-.4h3a31.4,31.4,0,0,1,2.6-10.4A30.4,30.4,0,0,1,56,99.9H48.1a6.2,6.2,0,0,1-3.8,3.8,5.9,5.9,0,0,1-6.9-3.3,6.2,6.2,0,0,1,3.2-7.9,5.8,5.8,0,0,1,7.9,3.2l16.4.2c0-1,0-2,.1-3a5.2,5.2,0,0,1,1-1.1H76l1,1c0,1,.1,1.9.1,2.9H93.9a6.8,6.8,0,0,1,5.6-4.1c3.2-.1,6.6,2.5,6.6,6.1s-3.3,6.1-6.5,6a6.6,6.6,0,0,1-5.7-4H86.5a29.9,29.9,0,0,1,8.4,7.1,27.1,27.1,0,0,1,4.8,9,23.3,23.3,0,0,1,1.3,7.8h3a1,1,0,0,1,1.1,1.1c0,5.3-.1,9.2-.1,9.9a1.2,1.2,0,0,1-.2.7,1.1,1.1,0,0,1-.8.3H94.9c-.1-.1-.4-.1-.6-.4a.9.9,0,0,1-.3-.7v-9.9a1.1,1.1,0,0,1,.3-.6.8.8,0,0,1,.7-.4h1.9a24.4,24.4,0,0,0-1.3-7,25.3,25.3,0,0,0-8-11.4,16.3,16.3,0,0,0-7.5-4.2,13.2,13.2,0,0,0-3.1-.3v1.8l-1,1.1H66l-1-1.2a10.9,10.9,0,0,1-.1-1.8l-2,.3c-8.8,2-13.5,10.7-14.6,12.7a32.5,32.5,0,0,0-3.2,10h2.8a1.4,1.4,0,0,1,.8.4,1.1,1.1,0,0,1,.3.6Z" fill="#fff"/>
  </g>
</svg>
