<svg xmlns="http://www.w3.org/2000/svg" viewBox="0 0 143 192">
  <title>xls</title>
  <g>
    <g>
      <path d="M0,170.2V20.5C.3,18.8,1.8,9.6,10.2,4a23,23,0,0,1,12-4h67L143,56l-.3,116a21.2,21.2,0,0,1-5.8,12.9,22.1,22.1,0,0,1-13.9,6.6L19.2,192a26.2,26.2,0,0,1-13.9-8.6A25.2,25.2,0,0,1,0,170.2Z" fill="#00743c"/>
      <polygon points="89.2 0 89.2 55.5 143 56 89.2 0" fill="#4c9d76"/>
    </g>
    <g>
      <path d="M29.7,138.8l8-11.7L31,116.7a23.6,23.6,0,0,1-1.4-2.6,5.4,5.4,0,0,1-.5-2.1,2.4,2.4,0,0,1,.9-1.8,3,3,0,0,1,2.2-.8,3.1,3.1,0,0,1,2.4.9,21.3,21.3,0,0,1,2.3,3.3l5.4,8.7,5.7-8.7,1.2-1.9,1-1.3,1-.8,1.4-.2a2.9,2.9,0,0,1,2.2.8,2.5,2.5,0,0,1,.9,1.9,8.8,8.8,0,0,1-1.9,4.5l-7.1,10.5,7.6,11.7a15.1,15.1,0,0,1,1.5,2.6,4.5,4.5,0,0,1,.5,1.9,2.4,2.4,0,0,1-.4,1.5,3.4,3.4,0,0,1-1.2,1.2,4.7,4.7,0,0,1-1.7.4,3.9,3.9,0,0,1-1.7-.4,4.3,4.3,0,0,1-1.2-1.1l-1.6-2.5-6.3-9.9-6.7,10.2-1.1,1.7a3.9,3.9,0,0,1-.8,1,4.1,4.1,0,0,1-1.1.7,3.3,3.3,0,0,1-1.5.3,3.3,3.3,0,0,1-2.2-.8,3.1,3.1,0,0,1-.9-2.4A8.5,8.5,0,0,1,29.7,138.8Z" fill="#fff"/>
      <path d="M68.4,113.8v26H83a3.7,3.7,0,0,1,2.7.9,2.5,2.5,0,0,1,1,2.1,2.9,2.9,0,0,1-.9,2.2,4.7,4.7,0,0,1-2.8.8H65.5a4.8,4.8,0,0,1-3.4-1.1,4.6,4.6,0,0,1-1-3.4V113.8a4.5,4.5,0,0,1,1-3.3,3.6,3.6,0,0,1,5.2,0A4.5,4.5,0,0,1,68.4,113.8Z" fill="#fff"/>
      <path d="M116.7,135a10.9,10.9,0,0,1-1.6,5.9,11.6,11.6,0,0,1-4.9,4,18.2,18.2,0,0,1-7.7,1.5,17.5,17.5,0,0,1-8.7-2,12.4,12.4,0,0,1-4-3.9,8.6,8.6,0,0,1-1.5-4.6,3.1,3.1,0,0,1,3.2-3.2,2.7,2.7,0,0,1,2,.7,5.1,5.1,0,0,1,1.3,2.2,17.7,17.7,0,0,0,1.5,2.8,5.5,5.5,0,0,0,2.3,1.9,7.8,7.8,0,0,0,3.7.8,8.8,8.8,0,0,0,5.3-1.5,4.7,4.7,0,0,0,2-3.8,4.2,4.2,0,0,0-1.1-2.9,7.8,7.8,0,0,0-2.8-1.7l-4.6-1.2a35.5,35.5,0,0,1-6.5-2.1,10.4,10.4,0,0,1-4.1-3.3,8.6,8.6,0,0,1-1.5-5.2,9,9,0,0,1,1.6-5.3,10.1,10.1,0,0,1,4.7-3.5,19.2,19.2,0,0,1,7.1-1.2,16.4,16.4,0,0,1,5.7.8,10.9,10.9,0,0,1,4,2.2,7.3,7.3,0,0,1,2.3,2.8,6.7,6.7,0,0,1,.8,2.9,3.2,3.2,0,0,1-.9,2.3,3,3,0,0,1-2.3,1.1,2.5,2.5,0,0,1-1.9-.6,10.8,10.8,0,0,1-1.4-2.1,8.6,8.6,0,0,0-2.4-3.1c-.9-.8-2.3-1.2-4.4-1.2a7.3,7.3,0,0,0-4.5,1.3,3.6,3.6,0,0,0-1.7,2.9,3.1,3.1,0,0,0,.6,1.9,5.3,5.3,0,0,0,1.6,1.3l2.1.9,3.4.9a46.3,46.3,0,0,1,5.5,1.6,18.3,18.3,0,0,1,4.2,2.1,9.1,9.1,0,0,1,2.7,3.1A10,10,0,0,1,116.7,135Z" fill="#fff"/>
    </g>
  </g>
</svg>
