<svg xmlns="http://www.w3.org/2000/svg" viewBox="0 0 143 192">
  <title>zip</title>
  <g>
    <g>
      <path d="M0,170.2V20.5C.3,18.8,1.8,9.6,10.2,4a23,23,0,0,1,12-4h67L143,56l-.3,116a21.2,21.2,0,0,1-5.8,12.9,22.1,22.1,0,0,1-13.9,6.6L19.2,192a26.2,26.2,0,0,1-13.9-8.6A25.2,25.2,0,0,1,0,170.2Z" fill="#f9b028"/>
      <polygon points="89.2 0 89.2 55.5 143 56 89.2 0" fill="#fdc965"/>
    </g>
    <path d="M25,18H43.7v9.6H56v11H44.7l.2,10.5H56V59.8H44.9l.2,10.7H56V81.3H36.7v-11L25,70.5v-11H37v-10H25v-11H36.5V27.5H25Z" fill="#fff"/>
    <path d="M42.5,129.9a10.7,10.7,0,0,1-9.3-6.2c-1.6-3.5-.6-7.2.3-10.2s2-3.5,2.8-6.8c.2-1.2.4-2.2.3-9s-.2-8.2,1-9.1.7-.4,5.3-.3,4.6,0,4.9.3,1,2.6.9,9.1,0,7.2.3,8.2c.8,3.3,2.1,3.4,3.3,6.8.5,1.7,1.8,5.4.5,9.1S47.8,130,42.5,129.9Z" fill="#fff"/>
    <path d="M39.2,123.5a6.3,6.3,0,0,1-2-3.1c-.8-3.3,1.9-5.8,2-5.9h7.4a6.4,6.4,0,0,1,2,4.5,6,6,0,0,1-2.3,4.8A6.2,6.2,0,0,1,39.2,123.5Z" fill="#f9b028"/>
  </g>
</svg>
