<svg xmlns="http://www.w3.org/2000/svg" viewBox="0 0 152.6 118.4">
  <title>newFolder</title>
  <g>
    <path d="M152.1,22.5a10.5,10.5,0,0,0-2.8-6.1,9.8,9.8,0,0,0-6.4-2.8c-5.9-.1-35-1.1-74.8-.7-1.7-2.4-3.2-4.3-4.3-5.7-3.4-4-4.6-5-5.9-5.7A14.2,14.2,0,0,0,53,.4C48.1.2,31.7.2,9.4.5A12.3,12.3,0,0,0,4.1,2.8,11.6,11.6,0,0,0,.3,8.3L.5,108.7a11.4,11.4,0,0,0,2.3,5.5,12.8,12.8,0,0,0,5.7,4l134.5-.5a12.7,12.7,0,0,0,6.4-3.6,11.8,11.8,0,0,0,3-6.6ZM50.3,60.2H67.2V44.5A7.5,7.5,0,0,1,74.7,37a7.5,7.5,0,0,1,7.5,7.5V60.2H99.1a7.5,7.5,0,0,1,0,15H82.2v18a7.5,7.5,0,0,1-15,0v-18H50.3a7.5,7.5,0,0,1-7.5-7.5,7.5,7.5,0,0,1,7.5-7.5Z" fill="#a5daf2" stroke="#36a9e1" stroke-miterlimit="10" stroke-width="0.5"/>
    <path d="M151.2,31.9a9.1,9.1,0,0,0-2.8-5.5,10.4,10.4,0,0,0-6.3-2.4l-73.9-.6H44.4l-31.8.4a13.5,13.5,0,0,0-7.5,3.5A13.7,13.7,0,0,0,1.2,37.5c.1,23.6.2,47.3.2,70.9a9.8,9.8,0,0,0,2.3,4.9,11.7,11.7,0,0,0,5.6,3.6l132.9-.5a12.5,12.5,0,0,0,6.3-3.2,11.1,11.1,0,0,0,3-5.8ZM99.1,75.2H82.2v18a7.5,7.5,0,0,1-15,0v-18H50.3a7.5,7.5,0,0,1-7.5-7.5,7.5,7.5,0,0,1,7.5-7.5H67.2V44.5A7.5,7.5,0,0,1,74.7,37a7.5,7.5,0,0,1,7.5,7.5V60.2H99.1a7.5,7.5,0,0,1,0,15Z" fill="#6dc7f1"/>
  </g>
</svg>
