<svg xmlns="http://www.w3.org/2000/svg" viewBox="0 0 141.7 141.7">
  <title>ajustes</title>
  <g>
    <rect width="141.7" height="141.73" rx="35" fill="#8d8d94"/>
    <path d="M85.3,76.4H83.2a1.9,1.9,0,0,1-1.8-1.3,8.7,8.7,0,0,0-.7-1.7,2,2,0,0,1,.4-2.2l1.4-1.4a5.7,5.7,0,0,0,0-8l-5.3-5.4a5.7,5.7,0,0,0-8,0l-1.5,1.5a2,2,0,0,1-2.1.4l-1.8-.8a1.9,1.9,0,0,1-1.2-1.7V53.7A5.8,5.8,0,0,0,56.9,48H49.4a5.7,5.7,0,0,0-5.7,5.7v2.1a1.9,1.9,0,0,1-1.2,1.7l-1.8.8a2,2,0,0,1-2.1-.4l-1.5-1.5a5.7,5.7,0,0,0-8,0l-5.4,5.4a5.7,5.7,0,0,0,0,8l1.5,1.4a2,2,0,0,1,.4,2.2,8.7,8.7,0,0,0-.7,1.7,1.9,1.9,0,0,1-1.8,1.3H21A5.7,5.7,0,0,0,15.3,82v7.6A5.8,5.8,0,0,0,21,95.3h2.1a1.6,1.6,0,0,1,1.7,1.2l.8,1.8a1.9,1.9,0,0,1-.4,2.1l-1.5,1.5a5.7,5.7,0,0,0,0,8l5.4,5.3a5.7,5.7,0,0,0,8,0l1.5-1.5a2,2,0,0,1,2.1-.4,9.8,9.8,0,0,0,1.8.8,2,2,0,0,1,1.2,1.8v2a5.6,5.6,0,0,0,5.7,5.7h7.5a5.7,5.7,0,0,0,5.7-5.7v-2a2,2,0,0,1,1.2-1.8l1.8-.7a1.8,1.8,0,0,1,2.1.3l1.5,1.5a5.7,5.7,0,0,0,8,0l5.3-5.3a5.7,5.7,0,0,0,0-8l-1.4-1.5a1.7,1.7,0,0,1-.4-2.1l.7-1.8a1.8,1.8,0,0,1,1.8-1.2h2.1a5.7,5.7,0,0,0,5.6-5.7V82A5.6,5.6,0,0,0,85.3,76.4Zm1.9,13.2a2,2,0,0,1-1.9,1.9H83.2a5.5,5.5,0,0,0-5.3,3.6,7.7,7.7,0,0,1-.7,1.6,5.7,5.7,0,0,0,1.2,6.3l1.5,1.5a2,2,0,0,1,0,2.7h0l-5.4,5.3a1.8,1.8,0,0,1-2.7,0l-1.4-1.4a5.7,5.7,0,0,0-6.4-1.2l-1.5.7a5.6,5.6,0,0,0-3.7,5.3v2a1.8,1.8,0,0,1-1.9,1.9H49.4a1.8,1.8,0,0,1-1.9-1.9v-2a5.6,5.6,0,0,0-3.7-5.3l-1.6-.7a5.7,5.7,0,0,0-6.3,1.1l-1.5,1.5a1.7,1.7,0,0,1-2.6,0h0l-5.4-5.3a2,2,0,0,1,0-2.7l1.5-1.5A5.6,5.6,0,0,0,29,96.7l-.6-1.6a5.7,5.7,0,0,0-5.3-3.6H21a2,2,0,0,1-1.9-1.9V82A2,2,0,0,1,21,80.1h2.1a5.7,5.7,0,0,0,5.3-3.6l.6-1.6a5.7,5.7,0,0,0-1.1-6.3l-1.5-1.5a2,2,0,0,1,0-2.7h0l5.4-5.3a1.7,1.7,0,0,1,2.6,0l1.5,1.5a5.7,5.7,0,0,0,6.3,1.1l1.6-.7a5.6,5.6,0,0,0,3.7-5.2V53.7a1.8,1.8,0,0,1,1.9-1.9h7.5a1.8,1.8,0,0,1,1.9,1.9v2.1a5.8,5.8,0,0,0,3.7,5.3l1.5.6a5.8,5.8,0,0,0,6.4-1.1l1.4-1.5a2,2,0,0,1,2.7,0l5.4,5.3a2,2,0,0,1,0,2.7l-1.5,1.5a5.7,5.7,0,0,0-1.2,6.3,11.1,11.1,0,0,1,.7,1.6,5.5,5.5,0,0,0,5.3,3.6h2.1A2,2,0,0,1,87.2,82v7.6Z" fill="#fff"/>
    <path d="M70.1,85.1a6.1,6.1,0,0,0-.1-1.4c-.1-.5-.1-1-.2-1.4l-.3-1-.3-1.1-.3-.8-.8-1.8H68A22,22,0,0,0,66.3,75l-.2-.2-.8-.9-.5-.4a1.2,1.2,0,0,0-.5-.5l-.7-.6-.3-.2a17.1,17.1,0,0,0-10.2-3.4H50.7l-1.8.3a17.1,17.1,0,0,0,0,33H49l2,.4h4l1.4-.2H57l1-.3.8-.3.7-.2.8-.4.9-.4h0a29,29,0,0,0,4.9-3.5,6.4,6.4,0,0,0,1-1.3,19.3,19.3,0,0,0,2.8-7.7c.1-.4.1-.8.2-1.1V85.1Zm-3.8,1.2v.5a5.9,5.9,0,0,1-.2,1.3,13,13,0,0,1-6.6,9.3l-.7.3h-.1a14.2,14.2,0,0,1-3.5,1.1H51.4l-1.6-.3a13.2,13.2,0,0,1,0-25.6h0a12.4,12.4,0,0,1,3.3-.4h2.1l1.2.2h.4a14.8,14.8,0,0,1,2.9,1.2l.4.3.9.6.4.3,1.1,1,.4.4.6.7.4.6.6.8.2.5a6.1,6.1,0,0,1,.7,1.4c.1.1.1.3.2.5l.3,1.1.2.5a7.8,7.8,0,0,1,.2,1.6V85A5.7,5.7,0,0,1,66.3,86.3Z" fill="#fff"/>
    <path d="M123.1,49.9h-6a1.7,1.7,0,0,1-1.7-1.2,33.8,33.8,0,0,0-2.2-5.2,1.9,1.9,0,0,1,.4-2.1l4.2-4.2a5.7,5.7,0,0,0,0-8l-8-8.1a5.7,5.7,0,0,0-8,0l-4.3,4.3a1.8,1.8,0,0,1-2.1.3,45.5,45.5,0,0,0-5.1-2.1A1.9,1.9,0,0,1,89,21.8V15.9a5.7,5.7,0,0,0-5.6-5.7H72a5.7,5.7,0,0,0-5.6,5.7v5.9a1.9,1.9,0,0,1-1.3,1.8A54.9,54.9,0,0,0,60,25.7a1.8,1.8,0,0,1-2.1-.3l-4.3-4.3a5.7,5.7,0,0,0-8,0l-8,8.1a5.7,5.7,0,0,0,0,8l6.2,6.2a1.9,1.9,0,0,0,2.7-.1,1.9,1.9,0,0,0,0-2.6l-6.2-6.2a1.8,1.8,0,0,1,0-2.7l8-8a2,2,0,0,1,2.7,0L55.2,28a5.5,5.5,0,0,0,6.5,1.1,37.1,37.1,0,0,1,4.6-1.9,5.6,5.6,0,0,0,3.8-5.4V15.9A1.9,1.9,0,0,1,72,14H83.4a1.9,1.9,0,0,1,1.9,1.9v5.9a5.7,5.7,0,0,0,3.8,5.4,37.1,37.1,0,0,1,4.6,1.9,5.6,5.6,0,0,0,6.5-1.1l4.2-4.2a2,2,0,0,1,2.7,0l8,8a1.8,1.8,0,0,1,0,2.7l-4.2,4.2a5.8,5.8,0,0,0-1.1,6.5,39,39,0,0,1,2,4.7,5.5,5.5,0,0,0,5.3,3.8h6a1.8,1.8,0,0,1,1.8,1.9V66.9a1.8,1.8,0,0,1-1.8,1.9h-6a5.5,5.5,0,0,0-5.3,3.8,39,39,0,0,1-2,4.7,5.7,5.7,0,0,0,1.1,6.4l4.2,4.3a1.7,1.7,0,0,1,0,2.6l-8,8.1a2,2,0,0,1-2.7,0l-6.2-6.2a1.9,1.9,0,0,0-2.7-.1,2,2,0,0,0,0,2.7h0l6.3,6.2a5.7,5.7,0,0,0,8,0l8-8a5.7,5.7,0,0,0,0-8l-4.2-4.2a1.9,1.9,0,0,1-.4-2.1,47.7,47.7,0,0,0,2.2-5.2,1.7,1.7,0,0,1,1.7-1.2h6a5.7,5.7,0,0,0,5.6-5.7V55.6A5.6,5.6,0,0,0,123.1,49.9Z" fill="#fff"/>
    <path d="M95.1,43.9a24.6,24.6,0,0,0-34.8,0,1.8,1.8,0,0,0,.1,2.6,1.9,1.9,0,0,0,2.6,0A20.8,20.8,0,0,1,92.6,75.7l-.2.2a1.8,1.8,0,0,0,0,2.7,1.8,1.8,0,0,0,2.6.1.1.1,0,0,1,.1-.1A24.5,24.5,0,0,0,95.1,43.9Z" fill="#fff"/>
  </g>
</svg>
