<svg xmlns="http://www.w3.org/2000/svg" viewBox="0 0 141.7 141.7">
  <title>asegurado</title>
  <g>
    <rect width="141.7" height="141.73" rx="35" fill="#5ab059"/>
    <path d="M98.5,54.9H95.4V42.6a24.6,24.6,0,1,0-49.1,0V54.9H43.2A9.2,9.2,0,0,0,34,64.1v43a9.2,9.2,0,0,0,9.2,9.2H98.5a9.2,9.2,0,0,0,9.2-9.2v-43A9.2,9.2,0,0,0,98.5,54.9Zm-44-12.3a16.4,16.4,0,1,1,32.7,0V54.9H54.5ZM75,86.5v9.3a4.1,4.1,0,0,1-4.1,4.1,4.1,4.1,0,0,1-4.1-4.1V86.5a8,8,0,0,1-4.1-7.1,8.2,8.2,0,0,1,16.4,0A8.2,8.2,0,0,1,75,86.5Z" fill="#fff"/>
  </g>
</svg>
