<svg xmlns="http://www.w3.org/2000/svg" viewBox="0 0 141.7 141.7">
  <title>bar</title>
  <g>
    <rect width="141.7" height="141.73" rx="35" fill="#222221"/>
    <path d="M109.3,41.1a6,6,0,0,0-6,6v2h-16V31.2a6,6,0,0,0-12,0v2H39.4v-2a6,6,0,1,0-12,0V111a1.9,1.9,0,0,0,2,2h8a1.9,1.9,0,0,0,2-2V45.1h8V57.5a6,6,0,0,0-4,5.6,6,6,0,1,0,12,0,6,6,0,0,0-4-5.6V45.1h12V57.5a5.8,5.8,0,0,0-4,5.6,6,6,0,1,0,12,0,6,6,0,0,0-4-5.6V45.1h7.9V111a1.9,1.9,0,0,0,2,2h8a1.9,1.9,0,0,0,2-2V61.1h16V111a1.9,1.9,0,0,0,2,2h8a1.9,1.9,0,0,0,2-2V47.1A6,6,0,0,0,109.3,41.1Zm-71.9,0a2,2,0,0,0-2,2v66h-4V31.2a2,2,0,1,1,4,0v4a2,2,0,0,0,2,2h10v3.9Zm12,24a2,2,0,1,1,2-2A2,2,0,0,1,49.4,65.1Zm2-24V37.2h12v3.9Zm14,24a2,2,0,1,1,2-2A2,2,0,0,1,65.4,65.1Zm45.9,44h-4v-50a2,2,0,0,0-2-2h-20a2,2,0,0,0-2,2v50h-4v-66a2,2,0,0,0-2-2H67.4V37.2h9.9a2,2,0,0,0,2-2v-4a2,2,0,0,1,4,0V51.1a2,2,0,0,0,2,2h20a2,2,0,0,0,2-2v-4a2,2,0,0,1,4,0Z" fill="#fff"/>
  </g>
</svg>
