<svg xmlns="http://www.w3.org/2000/svg" viewBox="0 0 141.7 141.7">
  <title>basedatos</title>
  <g>
    <rect width="141.7" height="141.73" rx="35" fill="#8d8d94"/>
    <path d="M72.9,24.5c-10.4,0-19.9,2.1-26.8,5.6S34.3,38.7,34.3,44.7v58.8c0,6.1,4.8,11.2,11.8,14.7s16.4,5.5,26.8,5.5,19.8-2.1,26.8-5.5,11.7-8.6,11.7-14.7V44.7c0-6-4.7-11.1-11.7-14.6S83.3,24.5,72.9,24.5Zm0,3.7c9.9,0,18.8,2,25.1,5.2s9.8,7.2,9.8,11.3-3.5,8.2-9.8,11.4-15.2,5.2-25.1,5.2S54,59.2,47.7,56.1,38,48.8,38,44.7s3.4-8.2,9.7-11.3S63,28.2,72.9,28.2Zm0,2.7c-9.6,0-18.2,2-24,4.9s-8.2,6.3-8.2,8.9a1.1,1.1,0,0,0,.9,1,.9.9,0,0,0,.9-1h0c0-1.4,1.8-4.5,7.3-7.2s13.8-4.7,23.1-4.7a.9.9,0,0,0,.9-.9,1.1,1.1,0,0,0-.9-1ZM38,53.5a28.7,28.7,0,0,0,8.1,5.9c6.9,3.4,16.4,5.5,26.8,5.5s19.8-2.1,26.8-5.5a32,32,0,0,0,8.1-5.9V64.3c0,4.1-3.5,8.2-9.8,11.4s-15.2,5.2-25.1,5.2S54,78.8,47.7,75.7,38,68.4,38,64.3Zm0,19.6A28.7,28.7,0,0,0,46.1,79c6.9,3.4,16.4,5.5,26.8,5.5S92.7,82.4,99.7,79a32,32,0,0,0,8.1-5.9V83.9c0,4.1-3.5,8.2-9.8,11.4s-15.2,5.2-25.1,5.2S54,98.4,47.7,95.3,38,88,38,83.9Zm0,19.6a28.7,28.7,0,0,0,8.1,5.9c6.9,3.4,16.4,5.5,26.8,5.5s19.8-2.1,26.8-5.5a32,32,0,0,0,8.1-5.9v10.8c0,4.1-3.5,8.2-9.8,11.4s-15.2,5.2-25.1,5.2S54,118,47.7,114.9,38,107.6,38,103.5Z" fill="#fff"/>
  </g>
</svg>
