<svg xmlns="http://www.w3.org/2000/svg" viewBox="0 0 141.7 141.7">
  <title>boxeo</title>
  <g>
    <rect width="141.7" height="141.73" rx="35" fill="#e3395a"/>
    <path d="M118.6,52.4h-5.1c-1.3-1.4-4.2-4.2-6.2-6.2s-5.5-3.3-8.9-3.1l1.7-8.1a2.9,2.9,0,0,0-3-3.5l-9.7.7-3.3-9.1a3.2,3.2,0,0,0-1.9-1.7,3,3,0,0,0-2.6.4l-7.7,5.8-7.8-5.8a2.8,2.8,0,0,0-2.5-.4,2.7,2.7,0,0,0-1.9,1.7l-3.4,9.1-9.6-.7A3,3,0,0,0,43.6,35l1.8,8.1c-3.4-.2-6.6.6-9,3.1l-6.2,6.2h-5a2.9,2.9,0,0,0-2.9,2.9V92.7a2.9,2.9,0,0,0,2.9,2.9h5.5a33.8,33.8,0,0,0,14.7,3.1l-1.8,8a3,3,0,0,0,3.1,3.5l9.6-.7,3.4,9.1a3.1,3.1,0,0,0,1.9,1.8,3.1,3.1,0,0,0,2.5-.5l7.8-5.8,7.7,5.8a3.4,3.4,0,0,0,2.6.5,3.7,3.7,0,0,0,1.9-1.8l3.3-9.1,9.7.7a2.9,2.9,0,0,0,3-3.5l-1.7-8A33.3,33.3,0,0,0,113,95.6h5.6a2.9,2.9,0,0,0,2.9-2.9V55.3A2.9,2.9,0,0,0,118.6,52.4ZM50.1,37.6l7.9.5a3,3,0,0,0,3-1.8l2.8-7.5,6.3,4.8a3.2,3.2,0,0,0,3.5,0L80,28.8l2.8,7.5a2.8,2.8,0,0,0,2.9,1.8l7.9-.5-1.2,5.5a10.6,10.6,0,0,0-11,10.6v1.8c-3.9-.2-6.9.6-9.5,3.4-2.7-2.8-5.7-3.6-9.6-3.4V53.7a10.6,10.6,0,0,0-11-10.6ZM97,86.4a6.5,6.5,0,0,1-6.5,6.5H79.6A4.9,4.9,0,0,1,74.8,88V66.2a4.8,4.8,0,0,1,4.8-4.9h1.8v1.8A10.7,10.7,0,0,0,97,72.6V86.4Zm-50.2,0V72.6c6.9,3.7,15.6-1.6,15.5-9.5V61.3h1.8A4.9,4.9,0,0,1,69,66.2V88a4.9,4.9,0,0,1-4.9,4.9H53.2a6.4,6.4,0,0,1-6.4-6.5Zm-3-27.8a2.9,2.9,0,0,0-2.9,2.9V86.4a12.8,12.8,0,0,0,1.8,6.4,26.6,26.6,0,0,1-10-2.7,3.1,3.1,0,0,0-1.3-.3H28.1V58.2h3.3a2.8,2.8,0,0,0,2-.8l7.1-7.1A5,5,0,0,1,44,48.9h7.6a4.9,4.9,0,0,1,4.9,4.8v9.4c-.2,6.4-9.5,6.4-9.7,0V61.5a2.9,2.9,0,0,0-3-2.9Zm49.8,45.6-7.9-.6a2.8,2.8,0,0,0-2.9,1.9L80,112.9l-6.4-4.7a2.9,2.9,0,0,0-3.5,0l-6.3,4.7L61,105.5a3,3,0,0,0-3-1.9l-7.9.6,1.2-5.5H64.1a10.6,10.6,0,0,0,7.8-3.4,10.4,10.4,0,0,0,7.7,3.4H92.4Zm22.1-14.4h-3.4a3.1,3.1,0,0,0-1.3.3,26.6,26.6,0,0,1-10,2.7,11.9,11.9,0,0,0,1.8-6.4V61.5a2.9,2.9,0,1,0-5.8,0v1.6a4.9,4.9,0,0,1-9.8,0V53.7a4.9,4.9,0,0,1,4.9-4.8h7.7a4.8,4.8,0,0,1,3.4,1.4l7.1,7.1a3,3,0,0,0,2,.8h3.4Z" fill="#fff"/>
  </g>
</svg>
