<svg xmlns="http://www.w3.org/2000/svg" viewBox="0 0 141.7 141.7">
  <title>carrito</title>
  <g>
    <rect width="141.7" height="141.73" rx="35" fill="#5ab059"/>
    <g>
      <g>
        <path d="M53.5,85h50c2.8,0,4.4-3.1,5.2-5.8l7.5-35.1H40.9l7.5,35.1C49,82,50.7,85,53.5,85Zm42.1-9,5.2-24.3a2.5,2.5,0,0,1,3-2,2.6,2.6,0,0,1,2,3.1l-5.1,24.3a2.8,2.8,0,0,1-2.6,2.1h-.5A2.6,2.6,0,0,1,95.6,76Zm-13,.4,1.8-24.3a2.5,2.5,0,0,1,2.7-2.4,2.6,2.6,0,0,1,2.4,2.7L87.8,76.8a2.6,2.6,0,0,1-2.6,2.4H85A2.6,2.6,0,0,1,82.6,76.4ZM69.5,49.7a2.6,2.6,0,0,1,2.8,2.4L74,76.4a2.6,2.6,0,0,1-2.4,2.7c0,.1-.1.1-.2.1a2.6,2.6,0,0,1-2.5-2.4L67.1,52.4A2.6,2.6,0,0,1,69.5,49.7Zm-16.7,0a2.6,2.6,0,0,1,3.1,2L61,76a2.6,2.6,0,0,1-2,3.1h-.5A2.6,2.6,0,0,1,56,77.1L50.8,52.8A2.6,2.6,0,0,1,52.8,49.7Z" fill="#fff"/>
        <path d="M56.8,99.1a8.8,8.8,0,1,0,8.8,8.8A8.7,8.7,0,0,0,56.8,99.1Zm0,12.1a3.3,3.3,0,1,1,3.3-3.3A3.3,3.3,0,0,1,56.8,111.2Z" fill="#fff"/>
        <path d="M98.7,99.1a8.8,8.8,0,1,0,8.9,8.8A8.8,8.8,0,0,0,98.7,99.1Zm0,12.1a3.3,3.3,0,1,1,0-6.6,3.3,3.3,0,0,1,0,6.6Z" fill="#fff"/>
      </g>
      <path d="M112.1,95.5H45.3a5.1,5.1,0,0,1-5-4L27.8,37.6H19.9a3,3,0,0,1-3-3,3.1,3.1,0,0,1,3-3h8.6a5.2,5.2,0,0,1,5,4L46,89.5h66.1a2.9,2.9,0,0,1,3,3A3,3,0,0,1,112.1,95.5Z" fill="#fff"/>
    </g>
  </g>
</svg>
