<svg xmlns="http://www.w3.org/2000/svg" viewBox="0 0 141.7 141.7">
  <title>codigo</title>
  <g>
    <rect width="141.7" height="141.73" rx="35" fill="#4f57a1"/>
    <path d="M61.7,90.8a2.1,2.1,0,0,1-1.1-.4L50,81.4a2.2,2.2,0,0,1-.6-1.3,1.7,1.7,0,0,1,.6-1.2l10.6-9.1a1.7,1.7,0,0,1,2.3.2,1.6,1.6,0,0,1-.2,2.3l-9.1,7.8,9.1,7.8a1.6,1.6,0,0,1,.2,2.3A1.6,1.6,0,0,1,61.7,90.8Z" fill="#fff"/>
    <path d="M82.6,90.8a1.4,1.4,0,0,1-1.2-.6,1.6,1.6,0,0,1,.1-2.3l9.2-7.8-9.2-7.8a1.6,1.6,0,0,1-.1-2.3,1.7,1.7,0,0,1,2.3-.2l10.6,9.1a1.7,1.7,0,0,1,.5,1.2,2.1,2.1,0,0,1-.5,1.3l-10.6,9A2.1,2.1,0,0,1,82.6,90.8Z" fill="#fff"/>
    <path d="M68.4,97.5H68a1.6,1.6,0,0,1-1.2-1.9l6.6-31.4a1.7,1.7,0,0,1,1.9-1.3,1.7,1.7,0,0,1,1.3,2L70,96.2A1.7,1.7,0,0,1,68.4,97.5Z" fill="#fff"/>
    <path d="M110.7,114.6H33.5a11,11,0,0,1-11-11V38.1a11,11,0,0,1,11-11h77.2a11,11,0,0,1,11,11v65.5A11,11,0,0,1,110.7,114.6ZM33.5,30.4a7.7,7.7,0,0,0-7.7,7.7v65.5a7.8,7.8,0,0,0,7.7,7.8h77.2a7.8,7.8,0,0,0,7.8-7.8V38.1a7.7,7.7,0,0,0-7.8-7.7Z" fill="#fff"/>
    <path d="M120.1,53.3H24.2a1.6,1.6,0,1,1,0-3.2h95.9a1.6,1.6,0,0,1,0,3.2Z" fill="#fff"/>
    <path d="M50.5,45.5a5.2,5.2,0,1,1,0-10.4,5.2,5.2,0,1,1,0,10.4Zm0-7.1a2,2,0,0,0-1.9,1.9,1.9,1.9,0,0,0,1.9,1.9,1.8,1.8,0,0,0,1.9-1.9A1.9,1.9,0,0,0,50.5,38.4Z" fill="#fff"/>
    <path d="M34.6,45.4a5.2,5.2,0,1,1,5.2-5.1A5.1,5.1,0,0,1,34.6,45.4Zm0-7.1a1.9,1.9,0,0,0-1.9,2,1.9,1.9,0,0,0,1.9,1.9,2,2,0,0,0,1.9-1.9A2,2,0,0,0,34.6,38.3Z" fill="#fff"/>
    <path d="M66.4,45.5a5.2,5.2,0,1,1,5.2-5.1A5.1,5.1,0,0,1,66.4,45.5Zm0-7.1a2,2,0,0,0-1.9,2,2,2,0,0,0,1.9,1.9,2,2,0,1,0,0-3.9Z" fill="#fff"/>
  </g>
</svg>
