<svg xmlns="http://www.w3.org/2000/svg" viewBox="0 0 141.7 141.7">
  <title>delete</title>
  <g>
    <rect width="141.7" height="141.73" rx="35" fill="#C31C37"/>
    <path d="M86.5,52.9a2.7,2.7,0,0,0-2.6,2.7v50.1a2.7,2.7,0,1,0,5.3,0V55.6A2.7,2.7,0,0,0,86.5,52.9Z" fill="#fff"/>
    <path d="M55.2,52.9a2.7,2.7,0,0,0-2.7,2.7v50.1a2.7,2.7,0,1,0,5.4,0V55.6A2.7,2.7,0,0,0,55.2,52.9Z" fill="#fff"/>
    <path d="M32.4,45.6V111a14.5,14.5,0,0,0,3.9,10.1,12.9,12.9,0,0,0,9.4,4.1H96a13.2,13.2,0,0,0,9.5-4.1,14.5,14.5,0,0,0,3.9-10.1V45.6a10.2,10.2,0,0,0-2.6-20H93.2V22.3a10.2,10.2,0,0,0-3.1-7.4,10.5,10.5,0,0,0-7.4-3.1H59.1a10.6,10.6,0,0,0-7.5,3.1,9.7,9.7,0,0,0-3,7.4v3.3H35a10.2,10.2,0,0,0-10.1,8.9A10.1,10.1,0,0,0,32.4,45.6ZM96,119.9H45.7c-4.5,0-8-3.9-8-8.9V45.8h66.4V111C104.1,116,100.5,119.9,96,119.9ZM53.9,22.3a5.1,5.1,0,0,1,1.5-3.7,5.6,5.6,0,0,1,3.7-1.5H82.7a5.8,5.8,0,0,1,3.7,1.5,5.6,5.6,0,0,1,1.5,3.7v3.3h-34ZM35,30.9h71.8a4.8,4.8,0,0,1,4.7,4.8,4.7,4.7,0,0,1-4.7,4.8H35a4.7,4.7,0,0,1-4.8-4.8A4.8,4.8,0,0,1,35,30.9Z" fill="#fff"/>
    <path d="M70.9,52.9a2.7,2.7,0,0,0-2.7,2.7v50.1a2.7,2.7,0,1,0,5.3,0V55.6A2.7,2.7,0,0,0,70.9,52.9Z" fill="#fff"/>
  </g>
</svg>
