<svg xmlns="http://www.w3.org/2000/svg" viewBox="0 0 141.7 141.7">
  <title>Recurso 32</title>
  <g>
    <rect width="141.7" height="141.73" rx="35" fill="#53b15b"/>
    <path d="M105.5,32.5a11.8,11.8,0,0,0-16.5,0l-4.1,4.2L40.8,80.8h-.2v.2h-.1c0,.1,0,.2-.1.2h0v.2h0l-9.8,29.5a2,2,0,0,0,.6,2.3,2,2,0,0,0,1.6.7h.8l29.4-9.8h.3l.2-.2h.3l48.3-48.2a11.9,11.9,0,0,0,0-16.6ZM62,98.7,45.7,82.4,86.5,41.6l16.3,16.3Zm-18.6-12L57.7,101l-21.4,7.1Zm65.2-34.6-2.5,2.5L89.8,38.3l2.5-2.5a7.1,7.1,0,0,1,9.9,0l6.4,6.4A7.1,7.1,0,0,1,108.6,52.1Z" fill="#fff"/>
  </g>
</svg>
