<svg xmlns="http://www.w3.org/2000/svg" viewBox="0 0 141.7 141.7">
  <title>finansa</title>
  <g>
    <rect width="141.7" height="141.73" rx="35" fill="#4f57a1"/>
    <path d="M44.9,115.4c6.2,0,16.7-1.1,16.7-5.4v-9.6a.5.5,0,0,0,0-.6V58.7c0-4.3-10.5-5.5-16.7-5.5s-16.8,1.2-16.8,5.5V110c0,4.3,10.5,5.4,16.8,5.4Zm14-48.1c-.4.9-5.6,3.1-14,3.1s-13.6-1.5-14.1-2.2V61.9c3.6,1.7,9.8,2.2,14.1,2.2s10.4-.5,14-2.2ZM33.7,72.2a51,51,0,0,0,11.2,1,38.2,38.2,0,0,0,11.3-1.5l2.7-1v7.4c-.4,1-5.6,3.2-14,3.2s-13.6-1.5-14.1-2.2V71.4l2.9.8Zm0,10.9a58,58,0,0,0,11.2,1,38.2,38.2,0,0,0,11.3-1.5l2.7-1V89c-.4,1-5.6,3.2-14,3.2S31.3,90.7,30.8,90V82.3l2.9.8Zm0,10.9a58,58,0,0,0,11.2,1,38.2,38.2,0,0,0,11.3-1.5l2.7-1v7.6c-.6,1-5.7,3-14,2.9s-13.6-1.7-14-2.5h-.1V93.2l2.9.8Zm11.2,18.7c-9.1,0-13.6-2-14.1-2.8v-6.2a16.1,16.1,0,0,0,2.9.9,54.7,54.7,0,0,0,11.2,1.2h.7a40.7,40.7,0,0,0,10.5-1.3l2.8-1.1v6.5c-.5.8-5,2.8-14,2.8Zm0-56.7c8.8,0,13.3,1.8,13.9,2.7s-5.1,2.7-13.9,2.7-13.4-1.9-14-2.7S36,56,44.9,56Z" fill="#fff"/>
    <path d="M33.6,49.9h.3l21.4-4.5a1.9,1.9,0,0,0,1.4-.9L67.2,31.2l16.9,3.6a1.9,1.9,0,0,0,1.6-.4L104.8,20l-.6,5a1.5,1.5,0,0,0,1.2,1.6h.2a1.4,1.4,0,0,0,1.4-1.2l.9-7.8v-.2a1.8,1.8,0,0,0-.5-1.2l-.2-.2a1.8,1.8,0,0,0-1-.4l-7.7-1.4a1.3,1.3,0,0,0-1.6,1.1,1.3,1.3,0,0,0,1,1.6H98l5.1.9L84.3,32,67,28.3h-.1a1.9,1.9,0,0,0-1.6.9L54.6,42.6,33.3,47.1a1.4,1.4,0,0,0-1,1.7A1.4,1.4,0,0,0,33.6,49.9Z" fill="#fff"/>
    <path d="M100,95.3V47.8c0-4.3-10.6-5.4-16.8-5.4s-16.8,1.1-16.8,5.4V110c0,4.3,10.6,5.4,16.8,5.4l4.3-.2a16.6,16.6,0,1,0,16.1-20.3,14.7,14.7,0,0,0-3.6.4Zm-10.2,6.8a46.3,46.3,0,0,1-6.5.4,67.3,67.3,0,0,1-10-.9c-2.9-.6-3.9-1.3-4.1-1.6h0v-7l2.8.8a56.4,56.4,0,0,0,11.2,1.2h.7a41.5,41.5,0,0,0,10.6-1.3,15.3,15.3,0,0,0,2.7-1.1v3.6a18.1,18.1,0,0,0-7.4,6Zm7.4-45.7c-.4.9-5.5,3.2-13.9,3.2S69.7,58,69.2,57.3V51c3.5,1.7,9.8,2.3,14,2.3s10.5-.6,14-2.3ZM72,61.3a51.4,51.4,0,0,0,11.3,1,38,38,0,0,0,11.2-1.5,10.8,10.8,0,0,0,2.7-1v7.5c-.4.9-5.5,3.1-13.9,3.1s-13.6-1.5-14.1-2.2V60.5a14.7,14.7,0,0,0,2.8.8Zm0,10.9a51.4,51.4,0,0,0,11.3,1,38,38,0,0,0,11.2-1.5,10.8,10.8,0,0,0,2.7-1v7.5c-.4.9-5.5,3.1-13.9,3.1s-13.6-1.5-14.1-2.2V71.4A14.7,14.7,0,0,0,72,72.2Zm0,10.9a51.4,51.4,0,0,0,11.3,1,38,38,0,0,0,11.2-1.5,10.8,10.8,0,0,0,2.7-1v7.6c-.5,1-5.7,3-13.9,2.9s-13.6-1.7-14.1-2.5h0V82.3l2.8.8Zm11.2-38c8.8,0,13.4,1.9,14,2.7s-5.2,2.7-14,2.7-13.4-1.8-14-2.7S74.4,45.1,83.2,45.1Zm0,67.6c-9,0-13.6-2-14-2.8v-6.7a13.1,13.1,0,0,0,2.8.9,56.4,56.4,0,0,0,11.2,1.2h.6l4.5-.2a14.2,14.2,0,0,0-1.3,6.1c0,.4.1.8.1,1.2l-3.9.3Zm34.3-1.5a13.9,13.9,0,1,1-13.9-13.6A13.7,13.7,0,0,1,117.5,111.2Z" fill="#fff"/>
    <path d="M102.5,102v.7a4,4,0,0,0-2,1.1,4.6,4.6,0,0,0-1.4,3.7,4.2,4.2,0,0,0,1,2.8,5,5,0,0,0,2.8,1.6h1.3c.1.1.2.1.2.2h.2c.2.1,1.5.9,1.6,2a2.1,2.1,0,0,1-.5,1.5,2.9,2.9,0,0,1-2.1.8c-.7-.1-2.2-.7-2.3-1.7a1.4,1.4,0,0,0-1.5-1.3,1.4,1.4,0,0,0-1.2,1.6h0c.2,2.2,2.2,3.5,3.9,4v.5a1.4,1.4,0,0,0,1.4,1.4,1.4,1.4,0,0,0,1.4-1.4v-.6a4.8,4.8,0,0,0,2.3-1.3,4.2,4.2,0,0,0,1.3-3.6c-.1-2.4-2.2-3.9-2.8-4.3h-.3l-.3-.2-.3-.2h-1.7c-1.2-.3-1.7-1-1.7-1.7a3.2,3.2,0,0,1,.6-1.8,2,2,0,0,1,1.6-.4,2.7,2.7,0,0,1,2.5,1.8,1.3,1.3,0,1,0,2.6-.7,5.1,5.1,0,0,0-3.8-3.7V102a1.4,1.4,0,0,0-1.4-1.4,1.4,1.4,0,0,0-1.4,1.4Z" fill="#fff"/>
  </g>
</svg>
