<svg xmlns="http://www.w3.org/2000/svg" viewBox="0 0 153.9 121.4">
  <title>folder</title>
  <g>
    <path d="M9.7,118.2a12.8,12.8,0,0,1-5.7-4,11.4,11.4,0,0,1-2.3-5.5L1.5,8.3A11.6,11.6,0,0,1,5.3,2.8,12.3,12.3,0,0,1,10.6.5C32.9.2,49.3.2,54.3.4a14.2,14.2,0,0,1,4.8,1.1c1.3.7,2.5,1.6,5.9,5.7,1.1,1.4,2.6,3.3,4.3,5.7,39.8-.4,68.9.6,74.8.7a9.6,9.6,0,0,1,9.2,8.9l.3,85a11.8,11.8,0,0,1-3,6.6,12.7,12.7,0,0,1-6.4,3.6Z" fill="#a5daf2" stroke="#36a9e1" stroke-miterlimit="10" stroke-width="0.5"/>
    <path d="M8.1,121.4a10.6,10.6,0,0,1-5.6-3.5A9.3,9.3,0,0,1,.2,113L0,42.1A13.7,13.7,0,0,1,3.9,31.8a13.5,13.5,0,0,1,7.5-3.5l31.7-.4H67l73.9.5a11.6,11.6,0,0,1,6.3,2.5,9.7,9.7,0,0,1,2.8,5.5l.2,75.5a10,10,0,0,1-2.9,5.8A12.8,12.8,0,0,1,141,121Z" fill="#6dc7f1"/>
  </g>
</svg>
