<?xml version="1.0" encoding="iso-8859-1"?>
<!-- Generator: Adobe Illustrator 19.0.0, SVG Export Plug-In . SVG Version: 6.00 Build 0)  -->
<svg version="1.1" id="Capa_1" xmlns="http://www.w3.org/2000/svg" xmlns:xlink="http://www.w3.org/1999/xlink" x="0px" y="0px"
	 viewBox="0 0 512 512" style="enable-background:new 0 0 512 512;" xml:space="preserve">
<g>
	<g>
		<path d="M256,134.335c-67.086,0-121.665,54.579-121.665,121.665S188.914,377.665,256,377.665S377.665,323.086,377.665,256
			S323.086,134.335,256,134.335z M256,347.665c-50.544,0-91.665-41.121-91.665-91.665s41.121-91.665,91.665-91.665
			s91.665,41.121,91.665,91.665S306.544,347.665,256,347.665z"/>
	</g>
</g>
<g>
	<g>
		<path d="M256,189.313c-36.771,0-66.687,29.915-66.687,66.687c0,36.772,29.915,66.687,66.687,66.687
			c36.772,0,66.687-29.915,66.687-66.687C322.687,219.228,292.771,189.313,256,189.313z"/>
	</g>
</g>
<g>
	<g>
		<path d="M466.051,241C458.682,136.81,375.19,53.318,271,45.949V0h-30v45.949C136.81,53.318,53.318,136.81,45.949,241H0v30h45.949
			C53.318,375.19,136.81,458.682,241,466.051V512h30v-45.949C375.19,458.682,458.682,375.19,466.051,271H512v-30H466.051z
			 M435.963,271C428.722,358.638,358.638,428.722,271,435.963v-24.181h-30v24.181C153.362,428.722,83.278,358.638,76.037,271h24.181
			v-30H76.037C83.278,153.362,153.362,83.278,241,76.037v24.181h30V76.037C358.638,83.278,428.722,153.362,435.963,241h-24.181v30
			H435.963z"/>
	</g>
</g>
<g>
</g>
<g>
</g>
<g>
</g>
<g>
</g>
<g>
</g>
<g>
</g>
<g>
</g>
<g>
</g>
<g>
</g>
<g>
</g>
<g>
</g>
<g>
</g>
<g>
</g>
<g>
</g>
<g>
</g>
</svg>
