<svg xmlns="http://www.w3.org/2000/svg" viewBox="0 0 422.23 174.52"><defs><style>.cls-1{fill:#2b4a99;}.cls-2{fill:#6b4e9b;}.cls-3{fill:#d54491;}.cls-4{fill:#f4ea5e;}</style></defs><title>kuka_1</title><g id="Capa_2" data-name="Capa 2"><g id="Capa_1-2" data-name="Capa 1"><path class="cls-1" d="M153.43,174.52h-8.24A43.24,43.24,0,0,1,102,131.38V6.79A6.73,6.73,0,0,1,104,2.06,6.39,6.39,0,0,1,108.83,0h19.63a6.39,6.39,0,0,1,4.85,2.06,6.73,6.73,0,0,1,1.94,4.73V131.38a9.94,9.94,0,0,0,9.94,9.93h8.24a10,10,0,0,0,7.15-2.91,9.36,9.36,0,0,0,3-7V6.79a6.68,6.68,0,0,1,1.94-4.73A6.39,6.39,0,0,1,170.4,0H190a6.54,6.54,0,0,1,4.73,2.06,6.53,6.53,0,0,1,2.06,4.73V131.38a41.4,41.4,0,0,1-12.73,30.54A42,42,0,0,1,153.43,174.52Z"/><path class="cls-2" d="M415.44,174.52H395.32q-4.6,0-6.54-5.33l-4.36-19.88H351.21l-4.36,19.88q-1.71,5.33-6.55,5.33H320.18a6.63,6.63,0,0,1-5.33-2.67,7.43,7.43,0,0,1-1.45-4.6v-1L349,5.33Q351,0,355.57,0h24.48c3.23,0,5.42,1.78,6.55,5.33l35.63,161v1a7.43,7.43,0,0,1-1.45,4.6A6.23,6.23,0,0,1,415.44,174.52Zm-38.29-58.41-9.46-42.42-9.21,42.42Z"/><path class="cls-3" d="M80.71,174.52H61.08a7,7,0,0,1-6.78-6.79V143.5q0-4.37-4.37-6.31l-2.42-.48a6.46,6.46,0,0,0-4.85,2.42l-7.76,9.21a5.93,5.93,0,0,0-1.69,4.37v15a6.71,6.71,0,0,1-1.94,4.73,6.41,6.41,0,0,1-4.85,2.06H6.79a6.51,6.51,0,0,1-4.73-2.06A6.51,6.51,0,0,1,0,167.73V6.79A6.39,6.39,0,0,1,2.06,1.94,6.71,6.71,0,0,1,6.79,0H26.42a6.63,6.63,0,0,1,6.79,6.79V81q0,4.37,4.36,6.3l2.42.49a6.65,6.65,0,0,0,5.09-2.43l6.06-7a14.12,14.12,0,0,0,3.16-8.72V6.79a6.38,6.38,0,0,1,2.05-4.85A6.73,6.73,0,0,1,61.08,0H80.71A6.63,6.63,0,0,1,87.5,6.79v74.9a14.11,14.11,0,0,1-3.15,8.72L73.93,102.29a6.74,6.74,0,0,0-1.46,4.12,7.15,7.15,0,0,0,1.94,4.85L83.62,121a12.86,12.86,0,0,1,3.88,9.46v37.32a6.71,6.71,0,0,1-1.94,4.73A6.39,6.39,0,0,1,80.71,174.52Z"/><path class="cls-4" d="M292.07,174.52H272.44a7,7,0,0,1-6.79-6.79V143.5q0-4.37-4.36-6.31l-2.43-.48a6.43,6.43,0,0,0-4.84,2.42l-7.76,9.21a5.94,5.94,0,0,0-1.7,4.37v15a6.71,6.71,0,0,1-1.94,4.73,6.39,6.39,0,0,1-4.84,2.06H218.14a7,7,0,0,1-6.78-6.79V6.79a6.38,6.38,0,0,1,2-4.85A6.73,6.73,0,0,1,218.14,0h19.64a6.63,6.63,0,0,1,6.78,6.79V81q0,4.37,4.37,6.3l2.42.49a6.65,6.65,0,0,0,5.09-2.43l6.06-7a14.11,14.11,0,0,0,3.15-8.72V6.79a6.39,6.39,0,0,1,2.06-4.85A6.71,6.71,0,0,1,272.44,0h19.63a6.63,6.63,0,0,1,6.79,6.79v74.9a14.17,14.17,0,0,1-3.15,8.72l-10.43,11.88a6.72,6.72,0,0,0-1.45,4.12,7.1,7.1,0,0,0,1.94,4.85L295,121a12.9,12.9,0,0,1,3.88,9.46v37.32a6.71,6.71,0,0,1-1.94,4.73A6.41,6.41,0,0,1,292.07,174.52Z"/></g></g></svg>