<svg xmlns="http://www.w3.org/2000/svg" viewBox="0 0 141.7 141.7">
  <title>login</title>
  <g>
    <rect width="141.7" height="141.73" rx="35" fill="#be223a"/>
    <path d="M88.1,73H23.4a2.1,2.1,0,0,1-2.1-2.1,2.1,2.1,0,0,1,2.1-2.2H88.1a2.2,2.2,0,0,1,2.2,2.2A2.1,2.1,0,0,1,88.1,73Z" fill="#fff"/>
    <path d="M70.9,90.3a2.1,2.1,0,0,1-1.6-.7,2.2,2.2,0,0,1,0-3L85.1,70.9,69.3,55.1a2.2,2.2,0,0,1,0-3,2.1,2.1,0,0,1,3.1,0L89.6,69.3a2.1,2.1,0,0,1,0,3.1L72.4,89.6A1.9,1.9,0,0,1,70.9,90.3Z" fill="#fff"/>
    <path d="M73,118.3A47.5,47.5,0,0,1,28.3,86.7a2.2,2.2,0,1,1,4.1-1.5,43.2,43.2,0,1,0,0-28.7,2.2,2.2,0,0,1-2.8,1.3,2.1,2.1,0,0,1-1.3-2.7A47.4,47.4,0,1,1,73,118.3Z" fill="#fff"/>
  </g>
</svg>
