<svg xmlns="http://www.w3.org/2000/svg" viewBox="0 0 414.5 131.3">
  <title>logoblanco</title>
  <g>
    <g>
      <path d="M179.9,90.2l3.2.4a8.2,8.2,0,0,1-2.8,4.5,9.8,9.8,0,0,1-11.9-1,10,10,0,0,1-2.4-7c0-3.2.8-5.6,2.4-7.4a8.8,8.8,0,0,1,12.5,0,10.5,10.5,0,0,1,2.3,7.2v.8H169.3a7.3,7.3,0,0,0,1.7,4.7,4.8,4.8,0,0,0,3.9,1.6,4.1,4.1,0,0,0,3-.9A6.1,6.1,0,0,0,179.9,90.2Zm-10.4-5.1h10.4a7,7,0,0,0-1.2-3.5,5.1,5.1,0,0,0-3.9-1.9,5.1,5.1,0,0,0-3.7,1.5A5.5,5.5,0,0,0,169.5,85.1Z" fill="#ddd" stroke="#ddd" stroke-miterlimit="10"/>
      <path d="M185.1,96.2V77.6h2.8v2.8a8.6,8.6,0,0,1,2-2.6,3.7,3.7,0,0,1,2-.7,7.5,7.5,0,0,1,3.3,1l-1.1,3a3.9,3.9,0,0,0-2.3-.7,3.1,3.1,0,0,0-1.9.6,3.3,3.3,0,0,0-1.2,1.7,15.7,15.7,0,0,0-.5,3.7v9.8Z" fill="#ddd" stroke="#ddd" stroke-miterlimit="10"/>
      <g>
        <path d="M203,96.2l-7.1-18.6h3.3l4,11.1a24,24,0,0,1,1.2,3.8q.4-1.5,1.2-3.6l4.2-11.3H213l-7.1,18.6Z" fill="#ddd" stroke="#ddd" stroke-miterlimit="10"/>
        <path d="M215.8,74.1V70.5H219v3.6Zm0,22.1V77.6H219V96.2Z" fill="#ddd" stroke="#ddd" stroke-miterlimit="10"/>
      </g>
    </g>
    <path d="M102.8,127.3l127.6-6.9a26.4,26.4,0,0,0,24.9-27.7,15,15,0,0,0-.5-3.7l-1.1-5.6a24.6,24.6,0,0,0-26.6-19.6L187.5,68a15.4,15.4,0,0,1-16.9-13.6,19.7,19.7,0,0,1,.1-4.2l.9-5.1a27.4,27.4,0,0,1,24.5-22.6L336.9,9.2" fill="#ddd" fill-opacity="0" stroke="#ddd" stroke-width="8"/>
    <path d="M413.8,85.2q-.4.5-6.3,10.2a1.7,1.7,0,0,1-2.2.6,2.7,2.7,0,0,1-.7-.8l-.5-1.2a23.2,23.2,0,0,1-1.6-6.8c-.2-3.6-.6-11-.9-14.6-.1-.3-.4-.5-.6-.4s-.3.1-.4.3c-1.1,4.5-3.7,15.3-4.8,20a.7.7,0,0,1-.7.4h0c-.2-.1-.4-.2-.4-.4-.7-3.3-2.4-11.1-3.1-14.5a.4.4,0,0,0-.6-.3.3.3,0,0,0-.3.3l-2.9,12.3a10.9,10.9,0,0,1-8.8,8.2l-4.5.8a9.3,9.3,0,0,1-2.9-.5,9.9,9.9,0,0,1-4.8-4c-2.1-3.4-1.4-17.2,7.8-16.8s8.1,10.8,8.1,13.3a7.6,7.6,0,0,1-6.3,7.4,65.6,65.6,0,0,1-8.9,1.1c-8.2.3-14.8,1.7-14.8,1.4s5.1-.2,7.1-3.5a9.4,9.4,0,0,0,1.1-5.4h0a9.4,9.4,0,0,1-1.1,5.4c-2.1,3.5-8.9,4.8-12.3,2.2s-1.2-12.7,1.5-16.8c.9-1.4,2.5-3.8,5-4a4.9,4.9,0,0,1,3.5,1.1,5.9,5.9,0,0,1,2.7,3.8c-.1.1-1.8-4.6-5-5a4.6,4.6,0,0,0-3.2.9c-6.5,4.1-4.3,15.8-9.8,18-3.2,1.4-7.9-.9-8.2-2.8s1-2.7,2.6-3,3.5,1,3.6,2.2-3.6,4.8-5.5,4.3c-8.2-2.2-28.2-12.1-40.9-13.9-14.4-2.1-44-8.7-63.5-11.5C214.9,71,198.6,65,181.4,55.4a56.6,56.6,0,0,0-46.2-4.3l-41,14a34.8,34.8,0,0,1-23.4-.3l-10.7-4A140.5,140.5,0,0,0,9.5,52.3H0" fill-opacity="0" stroke="#a1a1a1" stroke-width="2"/>
    <g>
      <path d="M261.6,86.9c0-3.5.9-6,2.9-7.7a8.8,8.8,0,0,1,5.8-2.1,8.2,8.2,0,0,1,6.3,2.6,9.9,9.9,0,0,1,2.5,7,12.2,12.2,0,0,1-1.1,5.6,7.4,7.4,0,0,1-3.1,3.2,8.3,8.3,0,0,1-4.6,1.1,8.4,8.4,0,0,1-6.3-2.5C262.4,92.5,261.6,90,261.6,86.9Zm3.2,0a8.2,8.2,0,0,0,1.6,5.4,5.3,5.3,0,0,0,7.4.5,1.2,1.2,0,0,1,.5-.5,8.6,8.6,0,0,0,1.5-5.5,6.9,6.9,0,0,0-1.6-5.2,5.1,5.1,0,0,0-7.3-.5l-.5.5A7.8,7.8,0,0,0,264.8,86.9Z" fill="#ddd" stroke="#ddd" stroke-miterlimit="10"/>
      <path d="M283.3,96.2V80h-2.8V77.6h2.8v-2a6.5,6.5,0,0,1,.3-2.8,3.6,3.6,0,0,1,1.6-2,5.3,5.3,0,0,1,3.2-.8,15.3,15.3,0,0,1,3,.3l-.5,2.8a5.5,5.5,0,0,0-1.8-.2,2.3,2.3,0,0,0-2,.6,3.2,3.2,0,0,0-.6,2.3v1.7h3.6V80h-3.6V96.2Z" fill="#ddd" stroke="#ddd" stroke-miterlimit="10"/>
      <g>
        <path d="M300.3,93.4l.5,2.8a9.9,9.9,0,0,1-2.4.3,6.6,6.6,0,0,1-2.7-.6,2.9,2.9,0,0,1-1.3-1.4,11.7,11.7,0,0,1-.4-3.7V80h-2.3V77.6H294V73l3.1-1.9v6.5h3.2V80h-3.2V91a8.8,8.8,0,0,0,.2,1.7.9.9,0,0,0,.6.6,1.9,1.9,0,0,0,1,.3Z" fill="#ddd" stroke="#ddd" stroke-miterlimit="10"/>
        <path d="M302.2,90.7l3.1-.5a3.9,3.9,0,0,0,1.5,2.8,4.4,4.4,0,0,0,3.3,1,5.4,5.4,0,0,0,3.3-.8,2.8,2.8,0,0,0,1-2.1,1.9,1.9,0,0,0-.9-1.7,12.1,12.1,0,0,0-3.2-1.1,39.7,39.7,0,0,1-4.9-1.5,4.9,4.9,0,0,1-2-1.8,5.2,5.2,0,0,1-.7-2.5,4.6,4.6,0,0,1,.6-2.3,5.5,5.5,0,0,1,1.6-1.8,6.1,6.1,0,0,1,2-.9,12.6,12.6,0,0,1,2.7-.4,10.7,10.7,0,0,1,3.9.7,5.1,5.1,0,0,1,2.4,1.7,5.7,5.7,0,0,1,1.1,2.9l-3.1.4a3.5,3.5,0,0,0-1.2-2.3,5.5,5.5,0,0,0-2.9-.8,5,5,0,0,0-3.1.8,2,2,0,0,0-.9,1.6,1.9,1.9,0,0,0,.4,1.2,3.6,3.6,0,0,0,1.2.8l2.8.8a42.6,42.6,0,0,1,4.7,1.5,4.3,4.3,0,0,1,2.8,4.3,5.1,5.1,0,0,1-.9,3,5.8,5.8,0,0,1-2.7,2.2,10.5,10.5,0,0,1-3.9.8,9.3,9.3,0,0,1-5.6-1.5A7.4,7.4,0,0,1,302.2,90.7Z" fill="#ddd" stroke="#ddd" stroke-miterlimit="10"/>
      </g>
    </g>
    <path d="M5.6,122.1l127.6-6.9a26.4,26.4,0,0,0,24.9-27.7c0-1.3-.2-2.2-1.6-9.3a24.3,24.3,0,0,0-26.6-19.5L90.3,62.9A15.5,15.5,0,0,1,73.4,49a17.9,17.9,0,0,1,.1-4l.9-5.1A27.4,27.4,0,0,1,98.9,17.3L239.6,4" fill="#ddd" fill-opacity="0" stroke="#ddd" stroke-width="8"/>
  </g>
</svg>
