<svg xmlns="http://www.w3.org/2000/svg" viewBox="0 0 141.73 141.73"><defs><style>.cls-1{fill:#84c336;}.cls-2{fill:#1d1d1b;}</style></defs><title>money</title><g id="Capa_2" data-name="Capa 2"><g id="Capa_1-2" data-name="Capa 1"><rect class="cls-1" width="141.73" height="141.73" rx="34.98"/><path class="cls-2" d="M124.36,64.58H109.05L125.62,48a1.77,1.77,0,0,0,0-2.52L91.74,11.61a1.77,1.77,0,0,0-2.52,0l-53,53H17.37a1.78,1.78,0,0,0-1.78,1.78v46.36a1.78,1.78,0,0,0,1.78,1.78h26L50,121.11a1.79,1.79,0,0,0,1.26.53,1.76,1.76,0,0,0,1.26-.53l6.61-6.61h65.24a1.78,1.78,0,0,0,1.78-1.78V66.36A1.78,1.78,0,0,0,124.36,64.58ZM90.48,15.39l31.36,31.36L104,64.58H90.39a19.42,19.42,0,0,0-5.66-12.09A19.61,19.61,0,0,0,51.34,64.58H41.29ZM62.36,64.58a3.55,3.55,0,0,1,.94-3.26l3.26,3.26Zm19.23,0a7.55,7.55,0,0,0-.64-.74,7.13,7.13,0,0,0-10.08,0l-5.05-5a3.64,3.64,0,0,1,5,0l2.53-2.52a7.13,7.13,0,0,0-10.09,0h0L62,55l-2.52,2.52,1.26,1.26a7.08,7.08,0,0,0-2,5.78H54.92a16,16,0,0,1,31.88,0ZM51.25,117.33l-2.83-2.83h5.66Zm71.33-6.39H19.16V68.14H122.58Z"/><path class="cls-2" d="M65.52,94.89H62A7.14,7.14,0,0,0,69.08,102v1.79h3.57V102a7.13,7.13,0,0,0,0-14.26V80.63a3.57,3.57,0,0,1,3.57,3.56h3.56a7.14,7.14,0,0,0-7.13-7.13V75.28H69.08v1.78a7.13,7.13,0,1,0,0,14.26v7.14A3.57,3.57,0,0,1,65.52,94.89Zm0-10.7a3.57,3.57,0,0,1,3.56-3.56v7.13A3.57,3.57,0,0,1,65.52,84.19Zm7.13,7.13a3.57,3.57,0,0,1,0,7.14Z"/><path class="cls-2" d="M70.87,109.16A19.62,19.62,0,1,0,51.25,89.54,19.64,19.64,0,0,0,70.87,109.16Zm0-35.67A16,16,0,1,1,54.82,89.54,16.06,16.06,0,0,1,70.87,73.49Z"/><path class="cls-2" d="M119,105.59V73.49a1.78,1.78,0,0,0-1.78-1.78H95.83v3.57h19.61v28.53H95.83v3.56h21.4A1.78,1.78,0,0,0,119,105.59Z"/><path class="cls-2" d="M24.51,107.37H45.9v-3.56H26.29V75.28H45.9V71.71H24.51a1.79,1.79,0,0,0-1.79,1.78v32.1A1.79,1.79,0,0,0,24.51,107.37Z"/><path class="cls-2" d="M95.83,96.67H99.4v3.57H95.83Z"/><path class="cls-2" d="M103,96.67h3.57v3.57H103Z"/><path class="cls-2" d="M95.83,78.84H99.4v3.57H95.83Z"/><path class="cls-2" d="M103,78.84h3.57v3.57H103Z"/><path class="cls-2" d="M91,26.09l20.18,20.17L97.27,60.13l2.52,2.52,15.13-15.13a1.77,1.77,0,0,0,0-2.52L92.23,22.31a1.84,1.84,0,0,0-2.53,0L74.57,37.44,77.1,40Z"/><path class="cls-2" d="M92.21,55.09l2.53-2.52,2.52,2.52-2.52,2.52Z"/><path class="cls-2" d="M97.26,50.05l2.52-2.52,2.52,2.52-2.52,2.52Z"/><path class="cls-2" d="M79.61,42.49,82.13,40l2.52,2.53L82.13,45Z"/><path class="cls-2" d="M84.65,37.44l2.52-2.52,2.52,2.52L87.17,40Z"/><path class="cls-2" d="M35.2,78.84h3.57v3.57H35.2Z"/><path class="cls-2" d="M42.34,78.84H45.9v3.57H42.34Z"/><path class="cls-2" d="M35.2,96.67h3.57v3.57H35.2Z"/><path class="cls-2" d="M42.34,96.67H45.9v3.57H42.34Z"/></g></g></svg>