<svg xmlns="http://www.w3.org/2000/svg" viewBox="0 0 15.1 15.1">
  <title>pointer</title>
  <g>
    <path d="M4024.5,227v-1.4h-1V227Zm-1-14v1.4h1V213Zm1,1.4V213h-1v1.4Zm0,11.2a.5.5,0,0,0-1,0Zm-1,1.4a.5.5,0,0,0,1,0Zm1-14a.5.5,0,0,0-1,0Zm-1,1.4a.5.5,0,0,0,1,0Z" transform="translate(-4016.5 -212.5)" />
    <path d="M4027.9,216.1a5.2,5.2,0,0,0-3.9-1.7v1a4.3,4.3,0,0,1,3.2,1.4Zm1.7,3.9a5.2,5.2,0,0,0-1.7-3.9l-.7.7a4.3,4.3,0,0,1,1.4,3.2Zm-1,3.1a5.7,5.7,0,0,0,1-3.1h-1a4.4,4.4,0,0,1-.8,2.5Zm-2.5,2a5.5,5.5,0,0,0,2.5-2l-.8-.6a3.9,3.9,0,0,1-2.1,1.7Zm-3.2.4a5,5,0,0,0,3.2-.4l-.4-.9a3.9,3.9,0,0,1-2.6.3Zm-2.8-1.6a5.6,5.6,0,0,0,2.8,1.6l.2-1a4.1,4.1,0,0,1-2.3-1.3Zm-1.6-2.8a5.6,5.6,0,0,0,1.6,2.8l.7-.7a4.1,4.1,0,0,1-1.3-2.3Zm.4-3.2a5,5,0,0,0-.4,3.2l1-.2a3.9,3.9,0,0,1,.3-2.6Zm2-2.5a5.5,5.5,0,0,0-2,2.5l.9.4a3.9,3.9,0,0,1,1.7-2.1Zm3.1-1a5.7,5.7,0,0,0-3.1,1l.6.8a4.4,4.4,0,0,1,2.5-.8Zm5.1,5.6h0Zm-5.1-5.1v0Z" transform="translate(-4016.5 -212.5)" />
    <path d="M4017,220.5h1.4v-1H4017Zm14-1h-1.4v1h1.4Zm-1.4,1h1.4v-1h-1.4Zm-11.2,0a.5.5,0,0,0,0-1Zm-1.4-1a.5.5,0,0,0,0,1Zm14,1a.5.5,0,0,0,0-1Zm-1.4-1a.5.5,0,0,0,0,1Z" transform="translate(-4016.5 -212.5)" />
  </g>
</svg>
