<svg xmlns="http://www.w3.org/2000/svg" viewBox="0 0 36 36">
  <title>reloj</title>
  <g>
    <circle cx="18" cy="18" r="18" fill="#e9eaee"/>
    <path d="M3646.6,238.8a9.8,9.8,0,0,0-9.7-9.8v1.5a8.3,8.3,0,0,1,8.2,8.3Zm-9.7,9.7a9.7,9.7,0,0,0,9.7-9.7h-1.5a8.2,8.2,0,0,1-8.2,8.2Zm-9.8-9.7a9.7,9.7,0,0,0,9.8,9.7V247a8.3,8.3,0,0,1-8.3-8.2Zm9.8-9.8a9.8,9.8,0,0,0-9.8,9.8h1.5a8.3,8.3,0,0,1,8.3-8.3Z" transform="translate(-3619 -221)" fill="#484848"/>
    <path d="M3636.9,240.3h4.5v-1.5h-4.5Zm-.8-7.5v6.7h1.5v-6.7Zm5.3,7.5a.7.7,0,0,0,.7-.8.7.7,0,0,0-.7-.7Zm-4.5-.8h-.8a.7.7,0,0,0,.8.8Zm.7-6.7a.8.8,0,0,0-.7-.8.8.8,0,0,0-.8.8Z" transform="translate(-3619 -221)" fill="#484848"/>
  </g>
</svg>
