<svg  viewBox="0 0 384 384"  xmlns="http://www.w3.org/2000/svg"><path d="m296 0c-43.054688 0-78.921875 31.105469-86.472656 72h-35.054688c-7.550781-40.894531-43.417968-72-86.472656-72-48.519531 0-88 39.480469-88 88s39.480469 88 88 88c43.054688 0 78.921875-31.105469 86.472656-72h35.054688c7.550781 40.894531 43.417968 72 86.472656 72 21.257812 0 40.777344-7.574219 56-20.167969v212.167969c0 8.832031 7.167969 16 16 16s16-7.167969 16-16v-280c0-48.519531-39.480469-88-88-88zm-208 144c-30.871094 0-56-25.121094-56-56s25.128906-56 56-56 56 25.121094 56 56-25.128906 56-56 56zm208 0c-30.871094 0-56-25.121094-56-56s25.128906-56 56-56 56 25.121094 56 56-25.128906 56-56 56zm0 0"/><path d="m299.3125 51.3125c-8.832031 0-16 7.167969-16 16s7.167969 16 16 16c2.582031 0 4.6875 2.101562 4.6875 4.6875 0 8.832031 7.167969 16 16 16s16-7.167969 16-16c0-20.230469-16.464844-36.6875-36.6875-36.6875zm0 0"/><path d="m91.3125 51.3125c-8.832031 0-16 7.167969-16 16s7.167969 16 16 16c2.582031 0 4.6875 2.101562 4.6875 4.6875 0 8.832031 7.167969 16 16 16s16-7.167969 16-16c0-20.230469-16.464844-36.6875-36.6875-36.6875zm0 0"/></svg>