<svg xmlns="http://www.w3.org/2000/svg" viewBox="0 0 141.7 141.7">
  <title>server</title>
  <g>
    <rect width="141.7" height="141.73" rx="35" fill="#fff"/>
    <g>
      <path d="M72.9,80.2H106a2.1,2.1,0,1,0,0-4.1H72.9a2,2,0,0,0-2,2A2,2,0,0,0,72.9,80.2Z" fill="#060606"/>
      <path d="M120.5,61.6V53.3a10.1,10.1,0,0,0-1.6-5.4.3.3,0,0,0-.1-.2L106.1,27.2a10.5,10.5,0,0,0-8.8-4.9H44.5a10.5,10.5,0,0,0-8.8,4.9L22.9,47.7v.2a10.1,10.1,0,0,0-1.6,5.4v8.3a10.2,10.2,0,0,0,4.2,8.3,9.9,9.9,0,0,0-4.2,8.2v8.3a10.2,10.2,0,0,0,4.2,8.3,10,10,0,0,0-4.2,8.2v8.3a10.3,10.3,0,0,0,10.3,10.3H58.7a2.1,2.1,0,1,0,0-4.1H31.6a6.2,6.2,0,0,1-6.2-6.2v-8.3a6.2,6.2,0,0,1,6.2-6.2H66.2a2,2,0,0,0,2-2,2,2,0,0,0-2-2.1H31.6a6.2,6.2,0,0,1-6.2-6.2V78.1a6.2,6.2,0,0,1,6.2-6.2h78.5a6.2,6.2,0,0,1,6.2,6.2v8.3a6.6,6.6,0,0,1-.6,2.7,2.1,2.1,0,0,0,.9,2.8,2,2,0,0,0,2.8-1,10.3,10.3,0,0,0,1.1-4.5V78.1a10.1,10.1,0,0,0-4.2-8.2A10.5,10.5,0,0,0,120.5,61.6ZM39.2,29.4a6.2,6.2,0,0,1,5.3-2.9H97.3a6.1,6.1,0,0,1,5.2,2.9l8.6,13.7H30.7Zm77.1,32.2a6.2,6.2,0,0,1-6.2,6.2H31.6a6.2,6.2,0,0,1-6.2-6.2V53.3a6.2,6.2,0,0,1,6.2-6.2h78.5a6.2,6.2,0,0,1,6.2,6.2v8.3Z" fill="#060606"/>
      <path d="M29.5,107.1a6.2,6.2,0,1,0,12.4,0,6.2,6.2,0,1,0-12.4,0Zm8.3,0a2,2,0,0,1-2.1,2,2,2,0,0,1-2-2,2,2,0,0,1,2-2.1A2.1,2.1,0,0,1,37.8,107.1Z" fill="#060606"/>
      <path d="M106,92.6h-1.1A18.5,18.5,0,0,0,71,101.1a10.3,10.3,0,0,0,1.9,20.4H106a14.5,14.5,0,1,0,0-28.9Zm0,24.8H72.9a6.2,6.2,0,0,1,0-12.4,2.1,2.1,0,0,0,2.1-2.1A14.5,14.5,0,0,1,89.5,88.5,14.3,14.3,0,0,1,102,95.9a2,2,0,0,0,2.2,1l1.8-.2a10.4,10.4,0,0,1,0,20.7Z" fill="#060606"/>
      <path d="M106,51.3H72.9a2,2,0,0,0-2,2,2,2,0,0,0,2,2.1H106a2.1,2.1,0,1,0,0-4.1Z" fill="#060606"/>
      <path d="M106,59.5H72.9a2.1,2.1,0,0,0,0,4.2H106a2.1,2.1,0,0,0,0-4.2Z" fill="#060606"/>
      <path d="M35.7,51.3a6.2,6.2,0,0,0-6.2,6.2,6.2,6.2,0,1,0,12.4,0A6.2,6.2,0,0,0,35.7,51.3Zm0,8.2a2,2,0,0,1-2-2,2,2,0,0,1,2-2.1,2.1,2.1,0,0,1,2.1,2.1A2,2,0,0,1,35.7,59.5Z" fill="#060606"/>
      <path d="M29.5,82.3a6.2,6.2,0,1,0,12.4,0,6.2,6.2,0,1,0-12.4,0Zm8.3,0a2,2,0,0,1-2.1,2,2,2,0,0,1-2-2,2,2,0,0,1,2-2.1A2.1,2.1,0,0,1,37.8,82.3Z" fill="#060606"/>
    </g>
  </g>
</svg>
