<svg xmlns="http://www.w3.org/2000/svg" viewBox="0 0 171.4 137">
  <title>share</title>
  <g>
    <path d="M8.5,118.2a12.8,12.8,0,0,1-5.7-4,11.4,11.4,0,0,1-2.3-5.5L.3,8.3A11.6,11.6,0,0,1,4.1,2.8,12.3,12.3,0,0,1,9.4.5C31.7.2,48.1.2,53,.4a14.2,14.2,0,0,1,4.9,1.1c1.3.7,2.5,1.6,5.8,5.7,1.2,1.4,2.7,3.3,4.4,5.7,39.8-.4,68.9.6,74.8.7a9.8,9.8,0,0,1,6.4,2.8,10.5,10.5,0,0,1,2.8,6.1l.3,85a11.8,11.8,0,0,1-3,6.6,12.7,12.7,0,0,1-6.4,3.6Z" fill="#a5daf2" stroke="#36a9e1" stroke-miterlimit="10" stroke-width="0.5"/>
    <path d="M9.3,116.9a11.7,11.7,0,0,1-5.6-3.6,9.3,9.3,0,0,1-2.3-4.9L1.2,37.5A13.7,13.7,0,0,1,5.1,27.2a13.5,13.5,0,0,1,7.5-3.5l31.7-.4H68.2l73.9.6a10.4,10.4,0,0,1,6.3,2.4,9.7,9.7,0,0,1,2.8,5.5l.2,75.5a10,10,0,0,1-2.9,5.8,12.5,12.5,0,0,1-6.3,3.2Z" fill="#6dc7f1"/>
    <circle cx="140.2" cy="105.9" r="31.2" fill="#a5daf2"/>
    <g>
      <path d="M155.5,92.5a5.5,5.5,0,0,1-5.5,5.4,5.4,5.4,0,0,1-5.4-5.4A5.5,5.5,0,0,1,150,87,5.5,5.5,0,0,1,155.5,92.5Z" fill="#fff"/>
      <path d="M150,99.2a6.7,6.7,0,1,1,6.7-6.7A6.7,6.7,0,0,1,150,99.2Zm0-10.9a4.2,4.2,0,1,0,4.2,4.2A4.2,4.2,0,0,0,150,88.3Z" fill="#fff"/>
      <path d="M150,124.7a5.4,5.4,0,0,1-5.4-5.4,5.5,5.5,0,0,1,5.4-5.5,5.5,5.5,0,0,1,5.5,5.5,5.5,5.5,0,0,1-5.5,5.4" fill="#fff"/>
      <path d="M150,126a6.7,6.7,0,1,1,6.7-6.7A6.7,6.7,0,0,1,150,126" fill="#fff"/>
      <path d="M150,115.1a4.2,4.2,0,1,0,4.2,4.2A4.2,4.2,0,0,0,150,115.1Z" fill="#fff"/>
      <path d="M132,105.9a5.4,5.4,0,0,1-5.4,5.4,5.5,5.5,0,0,1-5.5-5.4,5.5,5.5,0,0,1,5.5-5.5A5.5,5.5,0,0,1,132,105.9Z" fill="#fff"/>
      <path d="M126.6,112.6a6.7,6.7,0,1,1,6.7-6.7A6.7,6.7,0,0,1,126.6,112.6Zm0-10.9a4.2,4.2,0,1,0,4.2,4.2A4.2,4.2,0,0,0,126.6,101.7Z" fill="#fff"/>
      <path d="M130.5,105.1a1.7,1.7,0,0,1-1.4-.9,1.7,1.7,0,0,1,.6-2.3l15.5-8.8a1.6,1.6,0,0,1,2.3.6,1.7,1.7,0,0,1-.6,2.3l-15.5,8.8A1.6,1.6,0,0,1,130.5,105.1Z" fill="#fff"/>
      <path d="M146.1,118.9l-.9-.2-15.5-8.9a1.7,1.7,0,0,1-.6-2.3,1.6,1.6,0,0,1,2.3-.6l15.5,8.8a1.7,1.7,0,0,1,.6,2.3A1.5,1.5,0,0,1,146.1,118.9Z" fill="#fff"/>
    </g>
  </g>
</svg>
