<svg xmlns="http://www.w3.org/2000/svg" viewBox="0 0 152.1 117.9">
  <title>ssRecurso 3</title>
  <g>
    <path d="M8.2,117.9a11.6,11.6,0,0,1-8-9.5L0,8A11.3,11.3,0,0,1,9.1.3C31.4-.1,47.9-.1,52.8.2a11.3,11.3,0,0,1,4.8,1.1C59,2,60.2,2.9,63.5,7c1.1,1.4,2.7,3.3,4.4,5.7,39.7-.5,68.8.6,74.8.6a10.7,10.7,0,0,1,6.3,2.8,10.4,10.4,0,0,1,2.8,6.2l.3,85a11.8,11.8,0,0,1-9.4,10.1Z" fill="#a5daf2"/>
    <path d="M9.1,117.6A11.2,11.2,0,0,1,3.4,114a9.4,9.4,0,0,1-2.3-4.8v-71A13.7,13.7,0,0,1,4.8,28a13.4,13.4,0,0,1,7.6-3.5c10.4-.2,21-.4,31.7-.4,8-.1,16-.1,23.9,0l73.9.6a10.6,10.6,0,0,1,6.3,2.5,8.8,8.8,0,0,1,2.7,5.5l.3,75.5a10.2,10.2,0,0,1-3,5.8,13.1,13.1,0,0,1-6.3,3.2Z" fill="#6dc7f1"/>
    <g opacity="0.5">
      <g>
        <g>
          <path d="M72.2,102.3h1a3.4,3.4,0,0,1-.9,1.4,2.6,2.6,0,0,1-3.7-.5,2.2,2.2,0,0,1-.6-1.9,2.9,2.9,0,0,1,.7-2.2,2.4,2.4,0,0,1,1.9-.8,2.3,2.3,0,0,1,1.8.7,3,3,0,0,1,.8,2.2v.3H69a2.4,2.4,0,0,0,.5,1.4,1.7,1.7,0,0,0,1.2.5,1.6,1.6,0,0,0,.9-.3A1.5,1.5,0,0,0,72.2,102.3ZM69,100.8h3.1a2,2,0,0,0-.3-1.1,1.8,1.8,0,0,0-1.2-.5,1.5,1.5,0,0,0-1.1.4A1.7,1.7,0,0,0,69,100.8Z" fill="#010101"/>
          <path d="M73.7,104.1V98.5h.9v.9a1.6,1.6,0,0,1,.6-.8l.6-.2a1.9,1.9,0,0,1,1,.3l-.3.9a1,1,0,0,0-.7-.2h-.6a.9.9,0,0,0-.3.6,2,2,0,0,0-.2,1.1v2.9Z" fill="#010101"/>
          <path d="M79.1,104.1,77,98.5h1l1.2,3.4.3,1.1c.1-.3.3-.7.4-1.1l1.2-3.4h1L80,104.1Z" fill="#010101"/>
          <path d="M82.9,97.5V96.4h1v1.1Zm0,6.6V98.5h1v5.6Z" fill="#010101"/>
        </g>
        <path d="M49,113.4l38.3-2a8,8,0,0,0,7.5-8.4c0-.3-.1-.7-.1-1.1s0,.5-.4-1.6a7.3,7.3,0,0,0-8-5.9L74.5,95.6a4.5,4.5,0,0,1-5.1-4h0a2.8,2.8,0,0,1,0-1.3l.3-1.5A8.1,8.1,0,0,1,77,82l42.2-4" fill="#010101" fill-opacity="0" stroke="#010101" stroke-width="2.4"/>
        <path d="M142.4,100.8a25.3,25.3,0,0,0-1.9,3.1.5.5,0,0,1-.7.1.2.2,0,0,1-.2-.2l-.2-.4a6.5,6.5,0,0,1-.4-2c-.1-1-.2-3.3-.3-4.3l-.2-.2h-.1c-.3,1.4-1.1,4.6-1.4,6s-.2.2-.3.1h-.1l-.9-4.3c0-.1-.1-.1-.2-.1h0a.1.1,0,0,0-.1.1l-.8,3.7a3.5,3.5,0,0,1-2.7,2.4l-1.3.3-.9-.2a2.4,2.4,0,0,1-1.4-1.2c-.7-1-.5-5.1,2.3-5s2.4,3.3,2.4,4a2.2,2.2,0,0,1-1.9,2.2l-2.6.4c-2.5.1-4.5.5-4.5.4s1.6-.1,2.2-1a4.5,4.5,0,0,0,.3-1.6h0a2.5,2.5,0,0,1-2.2,2.8,2.5,2.5,0,0,1-1.8-.6c-1.4-1-.4-3.8.4-5s.8-1.1,1.5-1.2a1.8,1.8,0,0,1,1,.4,1.5,1.5,0,0,1,.8,1.1s-.5-1.4-1.5-1.5a1.9,1.9,0,0,0-1,.3c-2,1.2-1.2,4.7-2.9,5.4s-2.4-.3-2.5-.9a1.1,1.1,0,0,1,.8-.9,1.2,1.2,0,0,1,1.1.7c.1.5-1.1,1.4-1.6,1.3-2.5-.7-8.5-3.6-12.3-4.2s-13.1-2.8-19-3.6a44.7,44.7,0,0,1-14.7-5.3,16.7,16.7,0,0,0-13.8-1.3L46.5,94.8a11.2,11.2,0,0,1-7-.1l-3.2-1.2a41.6,41.6,0,0,0-15.2-2.6H18.2" fill="#010101" fill-opacity="0" stroke="#a2a1a1" stroke-width="0.6"/>
        <g>
          <path d="M96.7,101.3a2.9,2.9,0,0,1,.8-2.3,3,3,0,0,1,1.8-.6,2.6,2.6,0,0,1,1.9.7,2.8,2.8,0,0,1,.7,2.1,4.7,4.7,0,0,1-.3,1.7,1.8,1.8,0,0,1-.9,1,2.5,2.5,0,0,1-1.4.4,2.7,2.7,0,0,1-1.9-.8A2.9,2.9,0,0,1,96.7,101.3Zm1,0a1.8,1.8,0,0,0,.5,1.6,1.6,1.6,0,0,0,2.2.2v-.2a2.2,2.2,0,0,0,.5-1.6,2.4,2.4,0,0,0-.5-1.6,1.6,1.6,0,0,0-2.2-.1h-.1a1.9,1.9,0,0,0-.5,1.6Z" fill="#010101"/>
          <path d="M103.2,104.1V99.2h-.9v-.7h.9v-.6a1.9,1.9,0,0,1,.1-.8c.1-.3.2-.5.5-.6a1.7,1.7,0,0,1,1-.3h.9l-.2.9H105a.8.8,0,0,0-.6.2.6.6,0,0,0-.2.7v.5h1.1v.7h-1.1v4.9Z" fill="#010101"/>
          <path d="M108.3,103.3v.8h-.7l-.8-.2a.8.8,0,0,1-.4-.4,4.1,4.1,0,0,1-.1-1.1V99.2h-.7v-.7h.7V97.1l.9-.5v2h1v.7h-1v3.3c0,.2.1.3.1.5s.1.1.2.2h.7Z" fill="#010101"/>
          <path d="M108.8,102.4h1a1.8,1.8,0,0,0,.4.9,1.9,1.9,0,0,0,1,.3,1.7,1.7,0,0,0,1-.3,2.1,2.1,0,0,0,.4-.6l-.3-.5-1-.4-1.5-.4a1.3,1.3,0,0,1-.8-1.3,1.9,1.9,0,0,1,.2-.7,1,1,0,0,1,.4-.5l.6-.3h.9a2.2,2.2,0,0,1,1.1.2,1.4,1.4,0,0,1,.8.5,4.6,4.6,0,0,1,.3.9h-.9a1.6,1.6,0,0,0-.4-.7,2.1,2.1,0,0,0-1.8,0,.5.5,0,0,0-.3.5c0,.1.1.2.1.3l.4.3.8.2,1.4.5a1.3,1.3,0,0,1,.9,1.3,1.6,1.6,0,0,1-.3.9,1.6,1.6,0,0,1-.8.6,2.5,2.5,0,0,1-1.2.2,2.4,2.4,0,0,1-1.6-.4A2.5,2.5,0,0,1,108.8,102.4Z" fill="#010101"/>
        </g>
        <path d="M19.9,111.9l38.3-2.1a7.8,7.8,0,0,0,7.4-8.3,3.7,3.7,0,0,0-.1-1.1c-.3-1.7.1.4-.3-1.7a7.5,7.5,0,0,0-8-5.9L45.3,94.1A4.7,4.7,0,0,1,40.2,90V88.8l.3-1.5a8.1,8.1,0,0,1,7.3-6.8l42.3-4" fill="#010101" fill-opacity="0" stroke="#010101" stroke-width="2.4"/>
      </g>
    </g>
  </g>
</svg>
