<svg xmlns="http://www.w3.org/2000/svg" viewBox="0 0 141.8 141.7">
  <title>servisfots</title>
  <g>
    <rect width="141.7" height="141.73" rx="35" fill="#fff"/>
    <path d="M135.4,92.5c-.1.1-1,1.1-2.5,3a.5.5,0,0,1-.7.1c-.1-.1-.2-.2-.2-.3v-.4a9.1,9.1,0,0,1-.3-2.3l.4-4.7a.2.2,0,0,0-.2-.2h-.1L129.2,94c0,.1-.1.2-.2.1h-.1l-.4-4.8c0-.1,0-.2-.1-.2h-.2L126.7,93a3.4,3.4,0,0,1-3.2,2.2h-1.4l-1-.3a2.7,2.7,0,0,1-1.3-1.5c-.6-1.2.3-5.6,3.2-5.1s2.2,3.9,2.1,4.7a2.6,2.6,0,0,1-2.4,2.1h-2.9l-4.9-.2c0-.1,1.7.2,2.5-.8a4.9,4.9,0,0,0,.6-1.7h0a4.9,4.9,0,0,1-.6,1.7,3.1,3.1,0,0,1-4.1.2c-1-1,.2-4.2,1.2-5.4s1-1.1,1.8-1a1.6,1.6,0,0,1,1.1.5,1.7,1.7,0,0,1,.7,1.3s-.4-1.5-1.4-1.8a1.4,1.4,0,0,0-1.1.1c-2.2,1.1-2,4.9-3.9,5.4s-2.5-.6-2.5-1.3.4-.8.9-.8a1.1,1.1,0,0,1,1.1.9c0,.4-1.4,1.4-2,1.1-2.5-1.1-8.6-5.2-12.6-6.3s-13.8-4.8-20-6.5a47.4,47.4,0,0,1-15-7.9,18.5,18.5,0,0,0-14.7-3.5L33,71.8a11.8,11.8,0,0,1-7.6-1.1l-3.2-1.8A45.1,45.1,0,0,0,6.2,64l-3.1-.5" fill="#010101" fill-opacity="0" stroke="#a2a1a1" stroke-width="0.65"/>
    <g>
      <g>
        <path d="M74.5,77.6h1.4a3.3,3.3,0,0,1-1.3,1.9,4.2,4.2,0,0,1-5-.4,4.5,4.5,0,0,1-1-3.1A4.5,4.5,0,0,1,69.7,73a3.3,3.3,0,0,1,2.7-1A3.1,3.1,0,0,1,75,73.1a4.5,4.5,0,0,1,.9,3v.4H70a3.1,3.1,0,0,0,.7,2.1,2.4,2.4,0,0,0,1.6.7,1.8,1.8,0,0,0,1.3-.4A3.4,3.4,0,0,0,74.5,77.6Zm-4.4-2.3h4.4a2.5,2.5,0,0,0-.5-1.5,2.1,2.1,0,0,0-1.6-.8,1.9,1.9,0,0,0-1.6.6A2,2,0,0,0,70.1,75.3Z" fill="#010101"/>
        <path d="M76.7,80.1V72.2H78v1.2a4.4,4.4,0,0,1,.8-1.1,1.6,1.6,0,0,1,.9-.3,2.4,2.4,0,0,1,1.4.5l-.5,1.2a1.9,1.9,0,0,0-1-.3,1.1,1.1,0,0,0-.8.3,1.8,1.8,0,0,0-.5.7,4.1,4.1,0,0,0-.2,1.6v4.1Z" fill="#010101"/>
        <g>
          <path d="M84.3,80.2l-2.9-8h1.4L84.5,77c.1.6.3,1.1.4,1.6s.3-.9.6-1.5l1.8-4.8h1.4l-3.1,7.9Z" fill="#010101"/>
          <path d="M89.9,70.9V69.3h1.4v1.6Zm-.1,9.4v-8h1.3v8Z" fill="#010101"/>
        </g>
      </g>
      <path d="M41.5,93l54.4-2.4A11.1,11.1,0,0,0,106.6,79a18.3,18.3,0,0,0-.6-4,10.5,10.5,0,0,0-11.3-8.5L77.8,68.1a6.6,6.6,0,0,1-7.1-5.9,10.9,10.9,0,0,1,.1-1.8l.4-2.1a11.6,11.6,0,0,1,10.5-9.5l57.1-5.1" fill="#010101" fill-opacity="0" stroke="#010101" stroke-linecap="round" stroke-width="4"/>
      <path d="M2,90.2,54.5,88A11.2,11.2,0,0,0,65.2,76.3a31.3,31.3,0,0,0-.6-4,10.5,10.5,0,0,0-11.3-8.5L36.4,65.4a6.4,6.4,0,0,1-7.1-5.8,10.8,10.8,0,0,1,0-1.8l.5-2.2a11.5,11.5,0,0,1,10.5-9.5l60.1-5" fill="#010101" fill-opacity="0" stroke="#010101" stroke-linecap="round" stroke-linejoin="round" stroke-width="4"/>
      <g>
        <path d="M109.3,76.5a4,4,0,0,1,1.3-3.2,3.9,3.9,0,0,1,5.2.2,4.1,4.1,0,0,1,1,3,6.9,6.9,0,0,1-.5,2.4,3.8,3.8,0,0,1-1.4,1.4,3.8,3.8,0,0,1-1.9.4,3.9,3.9,0,0,1-2.7-1.1A4.1,4.1,0,0,1,109.3,76.5Zm1.4,0a3,3,0,0,0,.7,2.3,2.1,2.1,0,0,0,3.1.3l.2-.2a3.3,3.3,0,0,0,.7-2.4,2.9,2.9,0,0,0-.7-2.2,2.2,2.2,0,0,0-3.1-.2l-.2.2A3.4,3.4,0,0,0,110.7,76.5Z" fill="#010101"/>
        <path d="M118.5,80.6V73.7h-1.2V72.6h1.2v-.8a5,5,0,0,1,.2-1.2,1.4,1.4,0,0,1,.7-.8,2.3,2.3,0,0,1,1.4-.4l1.2.2-.2,1.2h-.8a1,1,0,0,0-.9.2,1.2,1.2,0,0,0-.2,1v.7h1.5v1H120v6.9Z" fill="#010101"/>
        <g>
          <path d="M125.8,79.5l.2,1.2h-1a2.7,2.7,0,0,1-1.2-.3,1,1,0,0,1-.5-.6,4.1,4.1,0,0,1-.2-1.6V73.7h-1v-1h1v-2l1.4-.8v2.8h1.4v1.1h-1.4v4.7a2.2,2.2,0,0,0,0,.8l.3.2h1Z" fill="#010101"/>
          <path d="M126.6,78.3l1.3-.2a2.4,2.4,0,0,0,.7,1.3,2.6,2.6,0,0,0,2.8,0,1.3,1.3,0,0,0,.4-.9.9.9,0,0,0-.4-.7l-1.3-.4-2.1-.7-.8-.8a2,2,0,0,1-.3-1.1,2.9,2.9,0,0,1,.2-.9,2.7,2.7,0,0,1,.7-.8l.9-.4h1.1a4.7,4.7,0,0,1,1.7.3,2.3,2.3,0,0,1,1,.7,2.9,2.9,0,0,1,.5,1.3h-1.3a1.5,1.5,0,0,0-.6-.9,1.6,1.6,0,0,0-1.2-.4,2.1,2.1,0,0,0-1.3.3.8.8,0,0,0-.4.7.6.6,0,0,0,.2.5.9.9,0,0,0,.5.3l1.2.4,1.9.6a1.9,1.9,0,0,1,1.2,1.9,2,2,0,0,1-.4,1.3,3.1,3.1,0,0,1-1.1.9,5.1,5.1,0,0,1-1.7.3,3.6,3.6,0,0,1-2.4-.7A2.9,2.9,0,0,1,126.6,78.3Z" fill="#010101"/>
        </g>
      </g>
    </g>
  </g>
</svg>
