<svg xmlns="http://www.w3.org/2000/svg" viewBox="0 0 143 192">
  <title>uploadfile</title>
  <g>
    <g>
      <path d="M0,170.2V20.5C.3,18.8,1.8,9.6,10.2,4a23,23,0,0,1,12-4h67L143,56l-.3,116a21.2,21.2,0,0,1-5.8,12.9,22.1,22.1,0,0,1-13.9,6.6L19.2,192a26.2,26.2,0,0,1-13.9-8.6A25.2,25.2,0,0,1,0,170.2Z" fill="#3d80c3"/>
      <polygon points="89.2 0 89.2 55.5 143 56 89.2 0" fill="#a5daf2"/>
    </g>
    <circle cx="68.2" cy="115.2" r="59.5" fill="#a5daf2"/>
    <path d="M75.8,159.5a4.9,4.9,0,0,0,.1-1.2V90.7l.7,1.5a17,17,0,0,0,2.7,3.9l19,18.9a7.1,7.1,0,0,0,9.1,1,6.9,6.9,0,0,0,1.5-9.6l-.6-.7L74,71.4a7,7,0,0,0-9.7,0h0L30,105.7a6.8,6.8,0,0,0,0,9.7l.7.6a7.1,7.1,0,0,0,9.1-1l19-18.9a16.6,16.6,0,0,0,2.5-3.4l.9-2.1V158a7.1,7.1,0,0,0,5.8,7.2A6.8,6.8,0,0,0,75.8,159.5Z" fill="#3d80c3"/>
  </g>
</svg>
