<svg xmlns="http://www.w3.org/2000/svg" viewBox="0 0 141.7 141.7">
	<title>
		upload_2
	</title>
	<g>
		<path d="M113.1,0H28.7A28.6,28.6,0,0,0,0,28.6v84.5a28.6,28.6,0,0,0,28.7,28.6h84.4a28.6,28.6,0,0,0,28.6-28.6V28.6A28.6,28.6,0,0,0,113.1,0Zm-4.4,123.5a3.9,3.9,0,0,1-3.9,4H36.7a4,4,0,0,1-3.9-4v-2.4a4,4,0,0,1,3.9-3.9h68.1a3.9,3.9,0,0,1,3.9,3.9Zm.5-66.8a2,2,0,0,1-1.5,1.1H91.5v43.1a6,6,0,0,1-1.9,3.7,5.4,5.4,0,0,1-3,1.3H55.5a4.6,4.6,0,0,1-3.2-.9,4.8,4.8,0,0,1-1.6-3.1c-.1-14.7-.2-29.3-.2-44H34.4a1.8,1.8,0,0,1-1.3-.9,2.1,2.1,0,0,1,.3-2.5L71.1,18.2l37.2,35.9A2.4,2.4,0,0,1,109.2,56.7Z" fill="#6fc7f1" />
		<path d="M104.8,117.2a3.9,3.9,0,0,1,3.9,3.9v2.4a3.9,3.9,0,0,1-3.9,4H36.7a4,4,0,0,1-3.9-4v-2.4a4,4,0,0,1,3.9-3.9" fill="none" />
	</g>
</svg>
