<svg xmlns="http://www.w3.org/2000/svg" viewBox="0 0 171.4 137">
  <title>upload_1</title>
  <g>
    <path d="M8.5,118.2a12.8,12.8,0,0,1-5.7-4,11.4,11.4,0,0,1-2.3-5.5L.3,8.3A11.6,11.6,0,0,1,4.1,2.8,12.3,12.3,0,0,1,9.4.5C31.7.2,48.1.2,53,.4a14.2,14.2,0,0,1,4.9,1.1c1.3.7,2.5,1.6,5.8,5.7,1.2,1.4,2.7,3.3,4.4,5.7,39.8-.4,68.9.6,74.8.7a9.8,9.8,0,0,1,6.4,2.8,10.5,10.5,0,0,1,2.8,6.1l.3,85a11.8,11.8,0,0,1-3,6.6,12.7,12.7,0,0,1-6.4,3.6Z" fill="#a5daf2" stroke="#36a9e1" stroke-miterlimit="10" stroke-width="0.5"/>
    <path d="M9.3,116.9a11.7,11.7,0,0,1-5.6-3.6,9.3,9.3,0,0,1-2.3-4.9L1.2,37.5A13.7,13.7,0,0,1,5.1,27.2a13.5,13.5,0,0,1,7.5-3.5l31.7-.4H68.2l73.9.6a10.4,10.4,0,0,1,6.3,2.4,9.7,9.7,0,0,1,2.8,5.5l.2,75.5a10,10,0,0,1-2.9,5.8,12.5,12.5,0,0,1-6.3,3.2Z" fill="#6dc7f1"/>
    <circle cx="140.2" cy="105.9" r="31.2" fill="#a5daf2"/>
    <path d="M143.9,125.5a.9.9,0,0,0,.1-.5V97l.2.6a4.8,4.8,0,0,0,1.2,1.6l7.8,7.9a3,3,0,0,0,3.8.4,2.9,2.9,0,0,0,.6-4l-.2-.3L143.2,89a2.8,2.8,0,0,0-4,0h-.1L125,103.2a2.8,2.8,0,0,0,0,4l.2.3a3,3,0,0,0,3.8-.4l7.9-7.9a5,5,0,0,0,1-1.4l.4-.8v27.8a2.8,2.8,0,0,0,5.6.7Z" fill="#fff"/>
  </g>
</svg>
