<svg xmlns="http://www.w3.org/2000/svg" viewBox="0 0 141.7 141.7">
  <title>usuarios_1</title>
  <g>
    <rect width="141.7" height="141.73" rx="35" fill="#416db4"/>
    <path d="M120.1,60.7a13.3,13.3,0,1,0-11.4,11.5A13.3,13.3,0,0,0,120.1,60.7Zm-11.2,9.5a11.4,11.4,0,1,1,9.2-9.3A11.3,11.3,0,0,1,108.9,70.2Z" fill="#fff"/>
    <path d="M107,70.3a21.6,21.6,0,0,0-15,6.1,26.6,26.6,0,0,0-42.3,0,21.4,21.4,0,0,0-14.9-6.1c-11.2,0-20.6,9.1-20.6,19.9v4.4c.5,1.7.6,1.1,2.2,1.3H125.3c.8.1,2.3,0,2.3-1.3V90.2C127.6,79.4,118.1,70.3,107,70.3ZM17.3,90.8C19,80.6,26.9,73.4,35.1,73.3s12.6,5.6,13.4,6.6a29.3,29.3,0,0,0-3.2,13.3h-28Zm53.2-22C83.1,68.6,93.8,79.6,93,92.7H48.8C48,79.9,58.2,69,70.5,68.8Zm53.9,24.4h-28a29.3,29.3,0,0,0-3.2-13.3A17.1,17.1,0,0,1,99.1,75a17.8,17.8,0,0,1,17.4,1c7.8,5.1,7.9,14.1,7.9,14.8Z" fill="#fff"/>
    <path d="M47.9,60.7A13.3,13.3,0,1,0,36.5,72.2,13.3,13.3,0,0,0,47.9,60.7ZM36.7,70.2A11.3,11.3,0,0,1,23.6,57.1a11.5,11.5,0,0,1,9.2-9.3,11.4,11.4,0,0,1,3.9,22.4Z" fill="#fff"/>
    <path d="M88.5,52A17.7,17.7,0,1,0,72.7,67.8,17.8,17.8,0,0,0,88.5,52ZM72.9,65.6A15.6,15.6,0,1,1,86.3,52.2,15.6,15.6,0,0,1,72.9,65.6Z" fill="#fff"/>
  </g>
</svg>
