<svg xmlns="http://www.w3.org/2000/svg" viewBox="0 0 85 85">
  <title>zoon</title>
  <g>
    <path d="M74.9,58.9A34.5,34.5,0,0,0,26.2,10.1,33.6,33.6,0,0,0,21,51.7a1.7,1.7,0,0,1-.2,1.8L3.2,71.1c-3.5,3.5-4.4,8.4-1.3,11.5l.6.5c3.1,3.1,8,2.3,11.5-1.2L31.5,64.3a1.5,1.5,0,0,1,1.8-.2A33.9,33.9,0,0,0,74.9,58.9ZM32.5,52.5a25.5,25.5,0,1,1,36.1,0A25.5,25.5,0,0,1,32.5,52.5Z" fill="#6ec7f1"/>
    <g>
      <line x1="50.5" y1="17.5" x2="50.5" y2="51.5" fill="none" stroke="#6ec7f1" stroke-linecap="round" stroke-miterlimit="10" stroke-width="5.94"/>
      <line x1="33.5" y1="34.5" x2="67.6" y2="34.5" fill="none" stroke="#6ec7f1" stroke-linecap="round" stroke-miterlimit="10" stroke-width="5.94"/>
    </g>
  </g>
</svg>
